<svg width="177" height="62" viewBox="0 0 177 62" fill="none" xmlns="http://www.w3.org/2000/svg">
<g clip-path="url(#clip0_47768_1883)">
<path d="M26.88 32.504C26.88 35.56 26.552 38.208 25.896 40.448C25.24 42.688 24.328 44.544 23.16 46.016C22.008 47.488 20.632 48.584 19.032 49.304C17.448 50.024 15.728 50.384 13.872 50.384C12.016 50.384 10.296 50.024 8.712 49.304C7.144 48.584 5.784 47.488 4.632 46.016C3.48 44.544 2.576 42.688 1.92 40.448C1.28 38.208 0.96 35.56 0.96 32.504C0.96 29.448 1.28 26.8 1.92 24.56C2.576 22.32 3.48 20.464 4.632 18.992C5.784 17.52 7.144 16.432 8.712 15.728C10.296 15.008 12.016 14.648 13.872 14.648C15.728 14.648 17.448 15.008 19.032 15.728C20.632 16.432 22.008 17.52 23.16 18.992C24.328 20.464 25.24 22.32 25.896 24.56C26.552 26.8 26.88 29.448 26.88 32.504ZM19.2 32.504C19.2 30.088 19.048 28.112 18.744 26.576C18.44 25.024 18.032 23.808 17.52 22.928C17.024 22.048 16.456 21.448 15.816 21.128C15.176 20.792 14.528 20.624 13.872 20.624C13.216 20.624 12.568 20.792 11.928 21.128C11.304 21.448 10.744 22.048 10.248 22.928C9.768 23.808 9.376 25.024 9.072 26.576C8.784 28.112 8.64 30.088 8.64 32.504C8.64 34.936 8.784 36.92 9.072 38.456C9.376 39.992 9.768 41.208 10.248 42.104C10.744 42.984 11.304 43.592 11.928 43.928C12.568 44.248 13.216 44.408 13.872 44.408C14.528 44.408 15.176 44.248 15.816 43.928C16.456 43.592 17.024 42.984 17.52 42.104C18.032 41.208 18.44 39.992 18.744 38.456C19.048 36.92 19.2 34.936 19.2 32.504ZM52.7958 18.104C52.7958 18.616 52.7158 19.08 52.5558 19.496C52.3958 19.912 52.1398 20.28 51.7878 20.6C51.4518 20.904 51.0038 21.144 50.4438 21.32C49.8838 21.48 49.2118 21.56 48.4278 21.56H40.0758L39.0918 27.344C39.7478 27.232 40.3798 27.152 40.9878 27.104C41.5958 27.04 42.1878 27.008 42.7638 27.008C44.6038 27.008 46.2278 27.288 47.6358 27.848C49.0438 28.408 50.2278 29.176 51.1878 30.152C52.1478 31.112 52.8678 32.248 53.3478 33.56C53.8438 34.856 54.0918 36.248 54.0918 37.736C54.0918 39.608 53.7558 41.32 53.0837 42.872C52.4278 44.408 51.5078 45.736 50.3238 46.856C49.1398 47.976 47.7238 48.848 46.0758 49.472C44.4438 50.08 42.6518 50.384 40.6998 50.384C39.5638 50.384 38.4758 50.264 37.4358 50.024C36.4118 49.784 35.4438 49.464 34.5318 49.064C33.6358 48.648 32.8038 48.176 32.0358 47.648C31.2678 47.104 30.5718 46.528 29.9478 45.92L32.2518 42.848C32.4918 42.528 32.7718 42.288 33.0918 42.128C33.4118 41.952 33.7558 41.864 34.1238 41.864C34.6038 41.864 35.0518 42 35.4678 42.272C35.8998 42.528 36.3638 42.816 36.8598 43.136C37.3718 43.44 37.9638 43.72 38.6358 43.976C39.3078 44.232 40.1398 44.36 41.1318 44.36C42.1238 44.36 42.9718 44.2 43.6758 43.88C44.3798 43.544 44.9478 43.096 45.3798 42.536C45.8278 41.96 46.1478 41.296 46.3398 40.544C46.5478 39.776 46.6518 38.96 46.6518 38.096C46.6518 36.4 46.1718 35.112 45.2118 34.232C44.2518 33.336 42.8918 32.888 41.1318 32.888C39.5638 32.888 38.0278 33.184 36.5238 33.776L31.9158 32.528L34.8918 15.032H52.7958V18.104Z" fill="#FF3F3A"/>
<path d="M91.17 23H89.09C88.8567 23 88.6633 22.9433 88.51 22.83C88.3633 22.71 88.2567 22.5633 88.19 22.39L87.11 19.44H81.12L80.04 22.39C79.9867 22.5433 79.88 22.6833 79.72 22.81C79.5667 22.9367 79.3767 23 79.15 23H77.06L82.74 8.54H85.49L91.17 23ZM81.81 17.54H86.42L84.66 12.73C84.58 12.5167 84.49 12.2667 84.39 11.98C84.2967 11.6867 84.2033 11.37 84.11 11.03C84.0167 11.37 83.9233 11.6867 83.83 11.98C83.7433 12.2733 83.6567 12.53 83.57 12.75L81.81 17.54ZM94.7792 12.74V19.26C94.7792 19.8867 94.9226 20.3733 95.2092 20.72C95.5026 21.06 95.9392 21.23 96.5192 21.23C96.9459 21.23 97.3459 21.1367 97.7192 20.95C98.0926 20.7567 98.4459 20.4933 98.7792 20.16V12.74H101.249V23H99.7392C99.4192 23 99.2092 22.85 99.1092 22.55L98.9392 21.73C98.7259 21.9433 98.5059 22.14 98.2792 22.32C98.0526 22.4933 97.8092 22.6433 97.5492 22.77C97.2959 22.89 97.0192 22.9833 96.7192 23.05C96.4259 23.1233 96.1092 23.16 95.7692 23.16C95.2092 23.16 94.7126 23.0667 94.2792 22.88C93.8526 22.6867 93.4926 22.4167 93.1992 22.07C92.9059 21.7233 92.6826 21.3133 92.5292 20.84C92.3826 20.36 92.3092 19.8333 92.3092 19.26V12.74H94.7792ZM107.436 12.56C107.876 12.56 108.29 12.6067 108.676 12.7C109.063 12.7867 109.416 12.9167 109.736 13.09H112.686V14.01C112.686 14.1633 112.646 14.2833 112.566 14.37C112.486 14.4567 112.35 14.5167 112.156 14.55L111.236 14.72C111.303 14.8933 111.353 15.0767 111.386 15.27C111.426 15.4633 111.446 15.6667 111.446 15.88C111.446 16.3867 111.343 16.8467 111.136 17.26C110.936 17.6667 110.656 18.0133 110.296 18.3C109.943 18.5867 109.52 18.81 109.026 18.97C108.54 19.1233 108.01 19.2 107.436 19.2C107.05 19.2 106.673 19.1633 106.306 19.09C105.986 19.2833 105.826 19.5 105.826 19.74C105.826 19.9467 105.92 20.1 106.106 20.2C106.3 20.2933 106.55 20.36 106.856 20.4C107.17 20.44 107.523 20.4667 107.916 20.48C108.31 20.4867 108.713 20.5067 109.126 20.54C109.54 20.5733 109.943 20.6333 110.336 20.72C110.73 20.8 111.08 20.93 111.386 21.11C111.7 21.29 111.95 21.5367 112.136 21.85C112.33 22.1567 112.426 22.5533 112.426 23.04C112.426 23.4933 112.313 23.9333 112.086 24.36C111.866 24.7867 111.543 25.1667 111.116 25.5C110.696 25.8333 110.18 26.1 109.566 26.3C108.953 26.5067 108.253 26.61 107.466 26.61C106.686 26.61 106.01 26.5333 105.436 26.38C104.863 26.2333 104.386 26.0333 104.006 25.78C103.633 25.5333 103.353 25.2467 103.166 24.92C102.98 24.5933 102.886 24.2533 102.886 23.9C102.886 23.42 103.033 23.0167 103.326 22.69C103.62 22.3633 104.026 22.1033 104.546 21.91C104.293 21.77 104.09 21.5833 103.936 21.35C103.783 21.1167 103.706 20.8133 103.706 20.44C103.706 20.2867 103.733 20.13 103.786 19.97C103.84 19.8033 103.92 19.64 104.026 19.48C104.14 19.32 104.28 19.17 104.446 19.03C104.613 18.8833 104.81 18.7533 105.036 18.64C104.516 18.36 104.106 17.9867 103.806 17.52C103.513 17.0533 103.366 16.5067 103.366 15.88C103.366 15.3733 103.466 14.9167 103.666 14.51C103.873 14.0967 104.156 13.7467 104.516 13.46C104.883 13.1667 105.313 12.9433 105.806 12.79C106.306 12.6367 106.85 12.56 107.436 12.56ZM110.146 23.46C110.146 23.26 110.086 23.0967 109.966 22.97C109.846 22.8433 109.683 22.7467 109.476 22.68C109.27 22.6067 109.026 22.5533 108.746 22.52C108.473 22.4867 108.18 22.4633 107.866 22.45C107.56 22.43 107.24 22.4133 106.906 22.4C106.58 22.38 106.263 22.35 105.956 22.31C105.676 22.4633 105.45 22.6467 105.276 22.86C105.11 23.0667 105.026 23.3067 105.026 23.58C105.026 23.76 105.07 23.9267 105.156 24.08C105.25 24.24 105.393 24.3767 105.586 24.49C105.786 24.6033 106.043 24.69 106.356 24.75C106.67 24.8167 107.053 24.85 107.506 24.85C107.966 24.85 108.363 24.8133 108.696 24.74C109.03 24.6733 109.303 24.5767 109.516 24.45C109.736 24.33 109.896 24.1833 109.996 24.01C110.096 23.8433 110.146 23.66 110.146 23.46ZM107.436 17.62C107.743 17.62 108.01 17.58 108.236 17.5C108.463 17.4133 108.65 17.2967 108.796 17.15C108.95 17.0033 109.063 16.8267 109.136 16.62C109.216 16.4133 109.256 16.1867 109.256 15.94C109.256 15.4333 109.103 15.0333 108.796 14.74C108.496 14.44 108.043 14.29 107.436 14.29C106.83 14.29 106.373 14.44 106.066 14.74C105.766 15.0333 105.616 15.4333 105.616 15.94C105.616 16.18 105.653 16.4033 105.726 16.61C105.806 16.8167 105.92 16.9967 106.066 17.15C106.22 17.2967 106.41 17.4133 106.636 17.5C106.87 17.58 107.136 17.62 107.436 17.62ZM116.498 12.74V19.26C116.498 19.8867 116.641 20.3733 116.928 20.72C117.221 21.06 117.658 21.23 118.238 21.23C118.665 21.23 119.065 21.1367 119.438 20.95C119.811 20.7567 120.165 20.4933 120.498 20.16V12.74H122.968V23H121.458C121.138 23 120.928 22.85 120.828 22.55L120.658 21.73C120.445 21.9433 120.225 22.14 119.998 22.32C119.771 22.4933 119.528 22.6433 119.268 22.77C119.015 22.89 118.738 22.9833 118.438 23.05C118.145 23.1233 117.828 23.16 117.488 23.16C116.928 23.16 116.431 23.0667 115.998 22.88C115.571 22.6867 115.211 22.4167 114.918 22.07C114.625 21.7233 114.401 21.3133 114.248 20.84C114.101 20.36 114.028 19.8333 114.028 19.26V12.74H116.498ZM131.695 14.74C131.628 14.8467 131.558 14.9233 131.485 14.97C131.412 15.01 131.318 15.03 131.205 15.03C131.085 15.03 130.955 14.9967 130.815 14.93C130.682 14.8633 130.525 14.79 130.345 14.71C130.165 14.6233 129.958 14.5467 129.725 14.48C129.498 14.4133 129.228 14.38 128.915 14.38C128.428 14.38 128.045 14.4833 127.765 14.69C127.485 14.8967 127.345 15.1667 127.345 15.5C127.345 15.72 127.415 15.9067 127.555 16.06C127.702 16.2067 127.892 16.3367 128.125 16.45C128.365 16.5633 128.635 16.6667 128.935 16.76C129.235 16.8467 129.542 16.9433 129.855 17.05C130.168 17.1567 130.475 17.28 130.775 17.42C131.075 17.5533 131.342 17.7267 131.575 17.94C131.815 18.1467 132.005 18.3967 132.145 18.69C132.292 18.9833 132.365 19.3367 132.365 19.75C132.365 20.2433 132.275 20.7 132.095 21.12C131.915 21.5333 131.652 21.8933 131.305 22.2C130.958 22.5 130.528 22.7367 130.015 22.91C129.508 23.0767 128.925 23.16 128.265 23.16C127.912 23.16 127.565 23.1267 127.225 23.06C126.892 23 126.568 22.9133 126.255 22.8C125.948 22.6867 125.662 22.5533 125.395 22.4C125.135 22.2467 124.905 22.08 124.705 21.9L125.275 20.96C125.348 20.8467 125.435 20.76 125.535 20.7C125.635 20.64 125.762 20.61 125.915 20.61C126.068 20.61 126.212 20.6533 126.345 20.74C126.485 20.8267 126.645 20.92 126.825 21.02C127.005 21.12 127.215 21.2133 127.455 21.3C127.702 21.3867 128.012 21.43 128.385 21.43C128.678 21.43 128.928 21.3967 129.135 21.33C129.348 21.2567 129.522 21.1633 129.655 21.05C129.795 20.9367 129.895 20.8067 129.955 20.66C130.022 20.5067 130.055 20.35 130.055 20.19C130.055 19.95 129.982 19.7533 129.835 19.6C129.695 19.4467 129.505 19.3133 129.265 19.2C129.032 19.0867 128.762 18.9867 128.455 18.9C128.155 18.8067 127.845 18.7067 127.525 18.6C127.212 18.4933 126.902 18.37 126.595 18.23C126.295 18.0833 126.025 17.9 125.785 17.68C125.552 17.46 125.362 17.19 125.215 16.87C125.075 16.55 125.005 16.1633 125.005 15.71C125.005 15.29 125.088 14.89 125.255 14.51C125.422 14.13 125.665 13.8 125.985 13.52C126.312 13.2333 126.715 13.0067 127.195 12.84C127.682 12.6667 128.242 12.58 128.875 12.58C129.582 12.58 130.225 12.6967 130.805 12.93C131.385 13.1633 131.868 13.47 132.255 13.85L131.695 14.74ZM137.706 23.16C136.819 23.16 136.136 22.91 135.656 22.41C135.176 21.9033 134.936 21.2067 134.936 20.32V14.59H133.896C133.762 14.59 133.646 14.5467 133.546 14.46C133.452 14.3733 133.406 14.2433 133.406 14.07V13.09L135.056 12.82L135.576 10.02C135.602 9.88667 135.662 9.78333 135.756 9.71C135.856 9.63667 135.979 9.6 136.126 9.6H137.406V12.83H140.106V14.59H137.406V20.15C137.406 20.47 137.486 20.72 137.646 20.9C137.806 21.08 138.019 21.17 138.286 21.17C138.439 21.17 138.566 21.1533 138.666 21.12C138.772 21.08 138.862 21.04 138.936 21C139.016 20.96 139.086 20.9233 139.146 20.89C139.206 20.85 139.266 20.83 139.326 20.83C139.399 20.83 139.459 20.85 139.506 20.89C139.552 20.9233 139.602 20.9767 139.656 21.05L140.396 22.25C140.036 22.55 139.622 22.7767 139.156 22.93C138.689 23.0833 138.206 23.16 137.706 23.16Z" fill="#1E212C"/>
<path d="M79.296 51.912H81.76V44.096C81.76 43.8613 81.768 43.624 81.784 43.384L79.736 45.136C79.6827 45.1787 79.6293 45.2107 79.576 45.232C79.5227 45.248 79.472 45.256 79.424 45.256C79.344 45.256 79.272 45.24 79.208 45.208C79.144 45.1707 79.096 45.128 79.064 45.08L78.616 44.464L82.024 41.512H83.184V51.912H85.44V53H79.296V51.912ZM88.5773 51.912H91.0413V44.096C91.0413 43.8613 91.0493 43.624 91.0653 43.384L89.0173 45.136C88.9639 45.1787 88.9106 45.2107 88.8573 45.232C88.8039 45.248 88.7533 45.256 88.7053 45.256C88.6253 45.256 88.5533 45.24 88.4893 45.208C88.4253 45.1707 88.3773 45.128 88.3453 45.08L87.8973 44.464L91.3053 41.512H92.4653V51.912H94.7213V53H88.5773V51.912ZM96.5865 52.12C96.5865 51.9813 96.6105 51.8507 96.6585 51.728C96.7118 51.6053 96.7812 51.4987 96.8665 51.408C96.9572 51.3173 97.0638 51.2453 97.1865 51.192C97.3092 51.1387 97.4398 51.112 97.5785 51.112C97.7172 51.112 97.8478 51.1387 97.9705 51.192C98.0932 51.2453 98.1998 51.3173 98.2905 51.408C98.3812 51.4987 98.4505 51.6053 98.4985 51.728C98.5518 51.8507 98.5785 51.9813 98.5785 52.12C98.5785 52.264 98.5518 52.3973 98.4985 52.52C98.4505 52.6373 98.3812 52.7413 98.2905 52.832C98.1998 52.9227 98.0932 52.992 97.9705 53.04C97.8478 53.0933 97.7172 53.12 97.5785 53.12C97.4398 53.12 97.3092 53.0933 97.1865 53.04C97.0638 52.992 96.9572 52.9227 96.8665 52.832C96.7812 52.7413 96.7118 52.6373 96.6585 52.52C96.6105 52.3973 96.5865 52.264 96.5865 52.12ZM96.5865 46.12C96.5865 45.9813 96.6105 45.8507 96.6585 45.728C96.7118 45.6053 96.7812 45.4987 96.8665 45.408C96.9572 45.3173 97.0638 45.2453 97.1865 45.192C97.3092 45.1387 97.4398 45.112 97.5785 45.112C97.7172 45.112 97.8478 45.1387 97.9705 45.192C98.0932 45.2453 98.1998 45.3173 98.2905 45.408C98.3812 45.4987 98.4505 45.6053 98.4985 45.728C98.5518 45.8507 98.5785 45.9813 98.5785 46.12C98.5785 46.264 98.5518 46.3973 98.4985 46.52C98.4505 46.6373 98.3812 46.7413 98.2905 46.832C98.1998 46.9227 98.0932 46.9947 97.9705 47.048C97.8478 47.096 97.7172 47.12 97.5785 47.12C97.4398 47.12 97.3092 47.096 97.1865 47.048C97.0638 46.9947 96.9572 46.9227 96.8665 46.832C96.7812 46.7413 96.7118 46.6373 96.6585 46.52C96.6105 46.3973 96.5865 46.264 96.5865 46.12ZM108.394 47.272C108.394 48.2747 108.284 49.144 108.066 49.88C107.852 50.6107 107.559 51.216 107.186 51.696C106.812 52.176 106.37 52.5333 105.858 52.768C105.351 53.0027 104.807 53.12 104.226 53.12C103.639 53.12 103.092 53.0027 102.586 52.768C102.084 52.5333 101.647 52.176 101.274 51.696C100.9 51.216 100.607 50.6107 100.394 49.88C100.18 49.144 100.074 48.2747 100.074 47.272C100.074 46.2693 100.18 45.4 100.394 44.664C100.607 43.928 100.9 43.32 101.274 42.84C101.647 42.3547 102.084 41.9947 102.586 41.76C103.092 41.5253 103.639 41.408 104.226 41.408C104.807 41.408 105.351 41.5253 105.858 41.76C106.37 41.9947 106.812 42.3547 107.186 42.84C107.559 43.32 107.852 43.928 108.066 44.664C108.284 45.4 108.394 46.2693 108.394 47.272ZM106.914 47.272C106.914 46.3973 106.839 45.664 106.69 45.072C106.546 44.4747 106.348 43.9947 106.098 43.632C105.852 43.2693 105.567 43.0107 105.242 42.856C104.916 42.696 104.578 42.616 104.226 42.616C103.874 42.616 103.535 42.696 103.21 42.856C102.884 43.0107 102.599 43.2693 102.354 43.632C102.108 43.9947 101.911 44.4747 101.762 45.072C101.618 45.664 101.546 46.3973 101.546 47.272C101.546 48.1467 101.618 48.88 101.762 49.472C101.911 50.064 102.108 50.5413 102.354 50.904C102.599 51.2667 102.884 51.528 103.21 51.688C103.535 51.8427 103.874 51.92 104.226 51.92C104.578 51.92 104.916 51.8427 105.242 51.688C105.567 51.528 105.852 51.2667 106.098 50.904C106.348 50.5413 106.546 50.064 106.69 49.472C106.839 48.88 106.914 48.1467 106.914 47.272ZM117.675 47.272C117.675 48.2747 117.566 49.144 117.347 49.88C117.134 50.6107 116.84 51.216 116.467 51.696C116.094 52.176 115.651 52.5333 115.139 52.768C114.632 53.0027 114.088 53.12 113.507 53.12C112.92 53.12 112.374 53.0027 111.867 52.768C111.366 52.5333 110.928 52.176 110.555 51.696C110.182 51.216 109.888 50.6107 109.675 49.88C109.462 49.144 109.355 48.2747 109.355 47.272C109.355 46.2693 109.462 45.4 109.675 44.664C109.888 43.928 110.182 43.32 110.555 42.84C110.928 42.3547 111.366 41.9947 111.867 41.76C112.374 41.5253 112.92 41.408 113.507 41.408C114.088 41.408 114.632 41.5253 115.139 41.76C115.651 41.9947 116.094 42.3547 116.467 42.84C116.84 43.32 117.134 43.928 117.347 44.664C117.566 45.4 117.675 46.2693 117.675 47.272ZM116.195 47.272C116.195 46.3973 116.12 45.664 115.971 45.072C115.827 44.4747 115.63 43.9947 115.379 43.632C115.134 43.2693 114.848 43.0107 114.523 42.856C114.198 42.696 113.859 42.616 113.507 42.616C113.155 42.616 112.816 42.696 112.491 42.856C112.166 43.0107 111.88 43.2693 111.635 43.632C111.39 43.9947 111.192 44.4747 111.043 45.072C110.899 45.664 110.827 46.3973 110.827 47.272C110.827 48.1467 110.899 48.88 111.043 49.472C111.192 50.064 111.39 50.5413 111.635 50.904C111.88 51.2667 112.166 51.528 112.491 51.688C112.816 51.8427 113.155 51.92 113.507 51.92C113.859 51.92 114.198 51.8427 114.523 51.688C114.848 51.528 115.134 51.2667 115.379 50.904C115.63 50.5413 115.827 50.064 115.971 49.472C116.12 48.88 116.195 48.1467 116.195 47.272ZM122.498 47.76H128.898V48.8H122.498V47.76ZM135.53 51.912H137.994V44.096C137.994 43.8613 138.002 43.624 138.018 43.384L135.97 45.136C135.917 45.1787 135.864 45.2107 135.81 45.232C135.757 45.248 135.706 45.256 135.658 45.256C135.578 45.256 135.506 45.24 135.442 45.208C135.378 45.1707 135.33 45.128 135.298 45.08L134.85 44.464L138.258 41.512H139.418V51.912H141.674V53H135.53V51.912ZM149.74 48.864H151.476V49.68C151.476 49.7653 151.449 49.8373 151.396 49.896C151.348 49.9547 151.27 49.984 151.164 49.984H149.74V53H148.484V49.984H143.404C143.297 49.984 143.204 49.9547 143.124 49.896C143.049 49.832 143.001 49.7547 142.98 49.664L142.836 48.936L148.412 41.536H149.74V48.864ZM148.484 44.136C148.484 43.9973 148.486 43.848 148.492 43.688C148.502 43.528 148.521 43.3627 148.548 43.192L144.38 48.864H148.484V44.136ZM152.821 52.12C152.821 51.9813 152.845 51.8507 152.893 51.728C152.946 51.6053 153.016 51.4987 153.101 51.408C153.192 51.3173 153.298 51.2453 153.421 51.192C153.544 51.1387 153.674 51.112 153.813 51.112C153.952 51.112 154.082 51.1387 154.205 51.192C154.328 51.2453 154.434 51.3173 154.525 51.408C154.616 51.4987 154.685 51.6053 154.733 51.728C154.786 51.8507 154.813 51.9813 154.813 52.12C154.813 52.264 154.786 52.3973 154.733 52.52C154.685 52.6373 154.616 52.7413 154.525 52.832C154.434 52.9227 154.328 52.992 154.205 53.04C154.082 53.0933 153.952 53.12 153.813 53.12C153.674 53.12 153.544 53.0933 153.421 53.04C153.298 52.992 153.192 52.9227 153.101 52.832C153.016 52.7413 152.946 52.6373 152.893 52.52C152.845 52.3973 152.821 52.264 152.821 52.12ZM152.821 46.12C152.821 45.9813 152.845 45.8507 152.893 45.728C152.946 45.6053 153.016 45.4987 153.101 45.408C153.192 45.3173 153.298 45.2453 153.421 45.192C153.544 45.1387 153.674 45.112 153.813 45.112C153.952 45.112 154.082 45.1387 154.205 45.192C154.328 45.2453 154.434 45.3173 154.525 45.408C154.616 45.4987 154.685 45.6053 154.733 45.728C154.786 45.8507 154.813 45.9813 154.813 46.12C154.813 46.264 154.786 46.3973 154.733 46.52C154.685 46.6373 154.616 46.7413 154.525 46.832C154.434 46.9227 154.328 46.9947 154.205 47.048C154.082 47.096 153.952 47.12 153.813 47.12C153.674 47.12 153.544 47.096 153.421 47.048C153.298 46.9947 153.192 46.9227 153.101 46.832C153.016 46.7413 152.946 46.6373 152.893 46.52C152.845 46.3973 152.821 46.264 152.821 46.12ZM164.628 47.272C164.628 48.2747 164.519 49.144 164.3 49.88C164.087 50.6107 163.793 51.216 163.42 51.696C163.047 52.176 162.604 52.5333 162.092 52.768C161.585 53.0027 161.041 53.12 160.46 53.12C159.873 53.12 159.327 53.0027 158.82 52.768C158.319 52.5333 157.881 52.176 157.508 51.696C157.135 51.216 156.841 50.6107 156.628 49.88C156.415 49.144 156.308 48.2747 156.308 47.272C156.308 46.2693 156.415 45.4 156.628 44.664C156.841 43.928 157.135 43.32 157.508 42.84C157.881 42.3547 158.319 41.9947 158.82 41.76C159.327 41.5253 159.873 41.408 160.46 41.408C161.041 41.408 161.585 41.5253 162.092 41.76C162.604 41.9947 163.047 42.3547 163.42 42.84C163.793 43.32 164.087 43.928 164.3 44.664C164.519 45.4 164.628 46.2693 164.628 47.272ZM163.148 47.272C163.148 46.3973 163.073 45.664 162.924 45.072C162.78 44.4747 162.583 43.9947 162.332 43.632C162.087 43.2693 161.801 43.0107 161.476 42.856C161.151 42.696 160.812 42.616 160.46 42.616C160.108 42.616 159.769 42.696 159.444 42.856C159.119 43.0107 158.833 43.2693 158.588 43.632C158.343 43.9947 158.145 44.4747 157.996 45.072C157.852 45.664 157.78 46.3973 157.78 47.272C157.78 48.1467 157.852 48.88 157.996 49.472C158.145 50.064 158.343 50.5413 158.588 50.904C158.833 51.2667 159.119 51.528 159.444 51.688C159.769 51.8427 160.108 51.92 160.46 51.92C160.812 51.92 161.151 51.8427 161.476 51.688C161.801 51.528 162.087 51.2667 162.332 50.904C162.583 50.5413 162.78 50.064 162.924 49.472C163.073 48.88 163.148 48.1467 163.148 47.272ZM173.909 47.272C173.909 48.2747 173.8 49.144 173.581 49.88C173.368 50.6107 173.075 51.216 172.701 51.696C172.328 52.176 171.885 52.5333 171.373 52.768C170.867 53.0027 170.323 53.12 169.741 53.12C169.155 53.12 168.608 53.0027 168.101 52.768C167.6 52.5333 167.163 52.176 166.789 51.696C166.416 51.216 166.123 50.6107 165.909 49.88C165.696 49.144 165.589 48.2747 165.589 47.272C165.589 46.2693 165.696 45.4 165.909 44.664C166.123 43.928 166.416 43.32 166.789 42.84C167.163 42.3547 167.6 41.9947 168.101 41.76C168.608 41.5253 169.155 41.408 169.741 41.408C170.323 41.408 170.867 41.5253 171.373 41.76C171.885 41.9947 172.328 42.3547 172.701 42.84C173.075 43.32 173.368 43.928 173.581 44.664C173.8 45.4 173.909 46.2693 173.909 47.272ZM172.429 47.272C172.429 46.3973 172.355 45.664 172.205 45.072C172.061 44.4747 171.864 43.9947 171.613 43.632C171.368 43.2693 171.083 43.0107 170.757 42.856C170.432 42.696 170.093 42.616 169.741 42.616C169.389 42.616 169.051 42.696 168.725 42.856C168.4 43.0107 168.115 43.2693 167.869 43.632C167.624 43.9947 167.427 44.4747 167.277 45.072C167.133 45.664 167.061 46.3973 167.061 47.272C167.061 48.1467 167.133 48.88 167.277 49.472C167.427 50.064 167.624 50.5413 167.869 50.904C168.115 51.2667 168.4 51.528 168.725 51.688C169.051 51.8427 169.389 51.92 169.741 51.92C170.093 51.92 170.432 51.8427 170.757 51.688C171.083 51.528 171.368 51.2667 171.613 50.904C171.864 50.5413 172.061 50.064 172.205 49.472C172.355 48.88 172.429 48.1467 172.429 47.272Z" fill="#787A80"/>
</g>
<defs>
<clipPath id="clip0_47768_1883">
<rect width="177" height="62" fill="white"/>
</clipPath>
</defs>
</svg>
