<svg width="136" height="44" viewBox="0 0 136 44" fill="none" xmlns="http://www.w3.org/2000/svg">
<rect x="0.5" y="0.5" width="135" height="43" rx="3.5" stroke="url(#paint0_linear_47768_1878)"/>
<path d="M32.0602 16.878H33.5792C33.7426 16.878 33.8756 16.9177 33.9782 16.997C34.0809 17.0763 34.1579 17.179 34.2092 17.305L36.5892 23.479C36.6686 23.6797 36.7432 23.9013 36.8132 24.144C36.8879 24.382 36.9579 24.634 37.0232 24.9C37.1306 24.3633 37.2636 23.8897 37.4222 23.479L39.7952 17.305C39.8372 17.1977 39.9119 17.0997 40.0192 17.011C40.1266 16.9223 40.2596 16.878 40.4182 16.878H41.9372L37.8492 27H36.1482L32.0602 16.878ZM45.2367 19.818V27H43.5077V19.818H45.2367ZM45.4957 17.725C45.4957 17.8743 45.4653 18.0143 45.4047 18.145C45.344 18.2757 45.2623 18.39 45.1597 18.488C45.0617 18.586 44.945 18.6653 44.8097 18.726C44.6743 18.782 44.5297 18.81 44.3757 18.81C44.2263 18.81 44.084 18.782 43.9487 18.726C43.818 18.6653 43.7037 18.586 43.6057 18.488C43.5077 18.39 43.4283 18.2757 43.3677 18.145C43.3117 18.0143 43.2837 17.8743 43.2837 17.725C43.2837 17.571 43.3117 17.4263 43.3677 17.291C43.4283 17.1557 43.5077 17.039 43.6057 16.941C43.7037 16.843 43.818 16.766 43.9487 16.71C44.084 16.6493 44.2263 16.619 44.3757 16.619C44.5297 16.619 44.6743 16.6493 44.8097 16.71C44.945 16.766 45.0617 16.843 45.1597 16.941C45.2623 17.039 45.344 17.1557 45.4047 17.291C45.4653 17.4263 45.4957 17.571 45.4957 17.725ZM50.6645 19.706C51.1171 19.706 51.5325 19.7783 51.9105 19.923C52.2931 20.0677 52.6221 20.28 52.8975 20.56C53.1728 20.8353 53.3875 21.176 53.5415 21.582C53.6955 21.9833 53.7725 22.443 53.7725 22.961C53.7725 23.0917 53.7655 23.2013 53.7515 23.29C53.7421 23.374 53.7211 23.4417 53.6885 23.493C53.6605 23.5397 53.6208 23.5747 53.5695 23.598C53.5181 23.6167 53.4528 23.626 53.3735 23.626H48.9355C48.9868 24.3633 49.1851 24.9047 49.5305 25.25C49.8758 25.5953 50.3331 25.768 50.9025 25.768C51.1825 25.768 51.4228 25.7353 51.6235 25.67C51.8288 25.6047 52.0061 25.5323 52.1555 25.453C52.3095 25.3737 52.4425 25.3013 52.5545 25.236C52.6711 25.1707 52.7831 25.138 52.8905 25.138C52.9605 25.138 53.0211 25.152 53.0725 25.18C53.1238 25.208 53.1681 25.2477 53.2055 25.299L53.7095 25.929C53.5181 26.153 53.3035 26.342 53.0655 26.496C52.8275 26.6453 52.5778 26.7667 52.3165 26.86C52.0598 26.9487 51.7961 27.0117 51.5255 27.049C51.2595 27.0863 51.0005 27.105 50.7485 27.105C50.2491 27.105 49.7848 27.0233 49.3555 26.86C48.9261 26.692 48.5528 26.447 48.2355 26.125C47.9181 25.7983 47.6685 25.397 47.4865 24.921C47.3045 24.4403 47.2135 23.885 47.2135 23.255C47.2135 22.765 47.2928 22.3053 47.4515 21.876C47.6101 21.442 47.8365 21.0663 48.1305 20.749C48.4291 20.427 48.7908 20.1727 49.2155 19.986C49.6448 19.7993 50.1278 19.706 50.6645 19.706ZM50.6995 20.945C50.1955 20.945 49.8011 21.0873 49.5165 21.372C49.2318 21.6567 49.0498 22.0603 48.9705 22.583H52.2185C52.2185 22.359 52.1881 22.149 52.1275 21.953C52.0668 21.7523 51.9735 21.5773 51.8475 21.428C51.7215 21.2787 51.5628 21.162 51.3715 21.078C51.1801 20.9893 50.9561 20.945 50.6995 20.945ZM54.8 19.818H56.172C56.3026 19.818 56.4123 19.8483 56.501 19.909C56.5896 19.9697 56.6456 20.0467 56.669 20.14L57.698 23.976C57.754 24.186 57.7983 24.3913 57.831 24.592C57.8683 24.7927 57.9033 24.9933 57.936 25.194C57.9873 24.9933 58.041 24.7927 58.097 24.592C58.1576 24.3913 58.2206 24.186 58.286 23.976L59.476 20.126C59.504 20.0327 59.56 19.9557 59.644 19.895C59.728 19.8343 59.826 19.804 59.938 19.804H60.701C60.827 19.804 60.932 19.8343 61.016 19.895C61.1 19.9557 61.156 20.0327 61.184 20.126L62.36 24.046C62.4206 24.2467 62.4743 24.4427 62.521 24.634C62.5723 24.8207 62.6213 25.0097 62.668 25.201C62.7006 25.0003 62.7356 24.7997 62.773 24.599C62.815 24.3983 62.8663 24.1907 62.927 23.976L63.991 20.14C64.0143 20.0467 64.0703 19.9697 64.159 19.909C64.2476 19.8483 64.3503 19.818 64.467 19.818H65.776L63.501 27H62.108C61.9586 27 61.8513 26.8973 61.786 26.692L60.491 22.541C60.449 22.4057 60.4093 22.2703 60.372 22.135C60.3393 21.995 60.3113 21.8573 60.288 21.722C60.26 21.862 60.2296 22.002 60.197 22.142C60.1643 22.2773 60.127 22.415 60.085 22.555L58.776 26.692C58.7106 26.8973 58.5846 27 58.398 27H57.075L54.8 19.818ZM70.4562 27V19.818H71.5132C71.7372 19.818 71.8842 19.923 71.9542 20.133L72.0662 20.665C72.1922 20.525 72.3229 20.3967 72.4582 20.28C72.5982 20.1633 72.7452 20.063 72.8992 19.979C73.0579 19.895 73.2259 19.8297 73.4032 19.783C73.5852 19.7317 73.7836 19.706 73.9982 19.706C74.4509 19.706 74.8219 19.8297 75.1112 20.077C75.4052 20.3197 75.6246 20.644 75.7692 21.05C75.8812 20.812 76.0212 20.609 76.1892 20.441C76.3572 20.2683 76.5416 20.1283 76.7422 20.021C76.9429 19.9137 77.1552 19.8343 77.3792 19.783C77.6079 19.7317 77.8366 19.706 78.0652 19.706C78.4619 19.706 78.8142 19.7667 79.1222 19.888C79.4302 20.0093 79.6892 20.1867 79.8992 20.42C80.1092 20.6533 80.2679 20.938 80.3752 21.274C80.4872 21.61 80.5432 21.995 80.5432 22.429V27H78.8142V22.429C78.8142 21.9717 78.7139 21.6287 78.5132 21.4C78.3126 21.1667 78.0186 21.05 77.6312 21.05C77.4539 21.05 77.2882 21.0803 77.1342 21.141C76.9849 21.2017 76.8519 21.2903 76.7352 21.407C76.6232 21.519 76.5346 21.6613 76.4692 21.834C76.4039 22.0067 76.3712 22.205 76.3712 22.429V27H74.6352V22.429C74.6352 21.9483 74.5372 21.5983 74.3412 21.379C74.1499 21.1597 73.8652 21.05 73.4872 21.05C73.2399 21.05 73.0066 21.113 72.7872 21.239C72.5726 21.3603 72.3719 21.5283 72.1852 21.743V27H70.4562ZM85.8074 19.706C86.344 19.706 86.8294 19.7923 87.2634 19.965C87.702 20.1377 88.0754 20.3827 88.3834 20.7C88.6914 21.0173 88.9294 21.4047 89.0974 21.862C89.2654 22.3193 89.3494 22.8303 89.3494 23.395C89.3494 23.9643 89.2654 24.4777 89.0974 24.935C88.9294 25.3923 88.6914 25.782 88.3834 26.104C88.0754 26.426 87.702 26.6733 87.2634 26.846C86.8294 27.0187 86.344 27.105 85.8074 27.105C85.2707 27.105 84.783 27.0187 84.3444 26.846C83.9057 26.6733 83.53 26.426 83.2174 26.104C82.9094 25.782 82.669 25.3923 82.4964 24.935C82.3284 24.4777 82.2444 23.9643 82.2444 23.395C82.2444 22.8303 82.3284 22.3193 82.4964 21.862C82.669 21.4047 82.9094 21.0173 83.2174 20.7C83.53 20.3827 83.9057 20.1377 84.3444 19.965C84.783 19.7923 85.2707 19.706 85.8074 19.706ZM85.8074 25.775C86.4047 25.775 86.8457 25.5743 87.1304 25.173C87.4197 24.7717 87.5644 24.1837 87.5644 23.409C87.5644 22.6343 87.4197 22.044 87.1304 21.638C86.8457 21.232 86.4047 21.029 85.8074 21.029C85.2007 21.029 84.7527 21.2343 84.4634 21.645C84.174 22.051 84.0294 22.639 84.0294 23.409C84.0294 24.179 84.174 24.767 84.4634 25.173C84.7527 25.5743 85.2007 25.775 85.8074 25.775ZM91.1984 27V19.818H92.2134C92.3907 19.818 92.5144 19.8507 92.5844 19.916C92.6544 19.9813 92.7011 20.0933 92.7244 20.252L92.8294 21.12C93.0861 20.6767 93.3871 20.3267 93.7324 20.07C94.0777 19.8133 94.4651 19.685 94.8944 19.685C95.2491 19.685 95.5431 19.7667 95.7764 19.93L95.5524 21.225C95.5384 21.309 95.5081 21.3697 95.4614 21.407C95.4147 21.4397 95.3517 21.456 95.2724 21.456C95.2024 21.456 95.1067 21.4397 94.9854 21.407C94.8641 21.3743 94.7031 21.358 94.5024 21.358C94.1431 21.358 93.8351 21.4583 93.5784 21.659C93.3217 21.855 93.1047 22.1443 92.9274 22.527V27H91.1984ZM100.381 19.706C100.834 19.706 101.249 19.7783 101.627 19.923C102.01 20.0677 102.339 20.28 102.614 20.56C102.89 20.8353 103.104 21.176 103.258 21.582C103.412 21.9833 103.489 22.443 103.489 22.961C103.489 23.0917 103.482 23.2013 103.468 23.29C103.459 23.374 103.438 23.4417 103.405 23.493C103.377 23.5397 103.338 23.5747 103.286 23.598C103.235 23.6167 103.17 23.626 103.09 23.626H98.6523C98.7036 24.3633 98.9019 24.9047 99.2473 25.25C99.5926 25.5953 100.05 25.768 100.619 25.768C100.899 25.768 101.14 25.7353 101.34 25.67C101.546 25.6047 101.723 25.5323 101.872 25.453C102.026 25.3737 102.159 25.3013 102.271 25.236C102.388 25.1707 102.5 25.138 102.607 25.138C102.677 25.138 102.738 25.152 102.789 25.18C102.841 25.208 102.885 25.2477 102.922 25.299L103.426 25.929C103.235 26.153 103.02 26.342 102.782 26.496C102.544 26.6453 102.295 26.7667 102.033 26.86C101.777 26.9487 101.513 27.0117 101.242 27.049C100.976 27.0863 100.717 27.105 100.465 27.105C99.9659 27.105 99.5016 27.0233 99.0723 26.86C98.6429 26.692 98.2696 26.447 97.9523 26.125C97.6349 25.7983 97.3853 25.397 97.2033 24.921C97.0213 24.4403 96.9303 23.885 96.9303 23.255C96.9303 22.765 97.0096 22.3053 97.1683 21.876C97.3269 21.442 97.5533 21.0663 97.8473 20.749C98.1459 20.427 98.5076 20.1727 98.9323 19.986C99.3616 19.7993 99.8446 19.706 100.381 19.706ZM100.416 20.945C99.9123 20.945 99.5179 21.0873 99.2333 21.372C98.9486 21.6567 98.7666 22.0603 98.6873 22.583H101.935C101.935 22.359 101.905 22.149 101.844 21.953C101.784 21.7523 101.69 21.5773 101.564 21.428C101.438 21.2787 101.28 21.162 101.088 21.078C100.897 20.9893 100.673 20.945 100.416 20.945Z" fill="url(#paint1_linear_47768_1878)"/>
<defs>
<linearGradient id="paint0_linear_47768_1878" x1="-5.06639e-06" y1="44" x2="42.4927" y2="-44.7636" gradientUnits="userSpaceOnUse">
<stop stop-color="#FF3F3A"/>
<stop offset="1" stop-color="#F75E05"/>
</linearGradient>
<linearGradient id="paint1_linear_47768_1878" x1="32" y1="44" x2="86.2776" y2="-16.0254" gradientUnits="userSpaceOnUse">
<stop stop-color="#FF3F3A"/>
<stop offset="1" stop-color="#F75E05"/>
</linearGradient>
</defs>
</svg>
