<svg width="757" height="60" viewBox="0 0 757 60" fill="none" xmlns="http://www.w3.org/2000/svg">
<g clip-path="url(#clip0_47768_1880)">
<path d="M10.58 8.54V10.68H4.17V14.96H9.58V17.11H4.17V23H1.46V8.54H10.58ZM16.2859 12.58C17.0526 12.58 17.7459 12.7033 18.3659 12.95C18.9926 13.1967 19.5259 13.5467 19.9659 14C20.4059 14.4533 20.7459 15.0067 20.9859 15.66C21.2259 16.3133 21.3459 17.0433 21.3459 17.85C21.3459 18.6633 21.2259 19.3967 20.9859 20.05C20.7459 20.7033 20.4059 21.26 19.9659 21.72C19.5259 22.18 18.9926 22.5333 18.3659 22.78C17.7459 23.0267 17.0526 23.15 16.2859 23.15C15.5193 23.15 14.8226 23.0267 14.1959 22.78C13.5693 22.5333 13.0326 22.18 12.5859 21.72C12.1459 21.26 11.8026 20.7033 11.5559 20.05C11.3159 19.3967 11.1959 18.6633 11.1959 17.85C11.1959 17.0433 11.3159 16.3133 11.5559 15.66C11.8026 15.0067 12.1459 14.4533 12.5859 14C13.0326 13.5467 13.5693 13.1967 14.1959 12.95C14.8226 12.7033 15.5193 12.58 16.2859 12.58ZM16.2859 21.25C17.1393 21.25 17.7693 20.9633 18.1759 20.39C18.5893 19.8167 18.7959 18.9767 18.7959 17.87C18.7959 16.7633 18.5893 15.92 18.1759 15.34C17.7693 14.76 17.1393 14.47 16.2859 14.47C15.4193 14.47 14.7793 14.7633 14.3659 15.35C13.9526 15.93 13.7459 16.77 13.7459 17.87C13.7459 18.97 13.9526 19.81 14.3659 20.39C14.7793 20.9633 15.4193 21.25 16.2859 21.25ZM23.2731 23V12.74H24.7231C24.9765 12.74 25.1531 12.7867 25.2531 12.88C25.3531 12.9733 25.4198 13.1333 25.4531 13.36L25.6031 14.6C25.9698 13.9667 26.3998 13.4667 26.8931 13.1C27.3865 12.7333 27.9398 12.55 28.5531 12.55C29.0598 12.55 29.4798 12.6667 29.8131 12.9L29.4931 14.75C29.4731 14.87 29.4298 14.9567 29.3631 15.01C29.2965 15.0567 29.2065 15.08 29.0931 15.08C28.9931 15.08 28.8565 15.0567 28.6831 15.01C28.5098 14.9633 28.2798 14.94 27.9931 14.94C27.4798 14.94 27.0398 15.0833 26.6731 15.37C26.3065 15.65 25.9965 16.0633 25.7431 16.61V23H23.2731ZM31.4372 23V12.74H32.9472C33.2672 12.74 33.4772 12.89 33.5772 13.19L33.7372 13.95C33.9172 13.75 34.1039 13.5667 34.2972 13.4C34.4972 13.2333 34.7072 13.09 34.9272 12.97C35.1539 12.85 35.3939 12.7567 35.6472 12.69C35.9072 12.6167 36.1905 12.58 36.4972 12.58C37.1439 12.58 37.6739 12.7567 38.0872 13.11C38.5072 13.4567 38.8205 13.92 39.0272 14.5C39.1872 14.16 39.3872 13.87 39.6272 13.63C39.8672 13.3833 40.1305 13.1833 40.4172 13.03C40.7039 12.8767 41.0072 12.7633 41.3272 12.69C41.6539 12.6167 41.9805 12.58 42.3072 12.58C42.8739 12.58 43.3772 12.6667 43.8172 12.84C44.2572 13.0133 44.6272 13.2667 44.9272 13.6C45.2272 13.9333 45.4539 14.34 45.6072 14.82C45.7672 15.3 45.8472 15.85 45.8472 16.47V23H43.3772V16.47C43.3772 15.8167 43.2339 15.3267 42.9472 15C42.6605 14.6667 42.2405 14.5 41.6872 14.5C41.4339 14.5 41.1972 14.5433 40.9772 14.63C40.7639 14.7167 40.5739 14.8433 40.4072 15.01C40.2472 15.17 40.1205 15.3733 40.0272 15.62C39.9339 15.8667 39.8872 16.15 39.8872 16.47V23H37.4072V16.47C37.4072 15.7833 37.2672 15.2833 36.9872 14.97C36.7139 14.6567 36.3072 14.5 35.7672 14.5C35.4139 14.5 35.0805 14.59 34.7672 14.77C34.4605 14.9433 34.1739 15.1833 33.9072 15.49V23H31.4372ZM56.3131 23H55.2031C54.9698 23 54.7865 22.9667 54.6531 22.9C54.5198 22.8267 54.4198 22.6833 54.3531 22.47L54.1331 21.74C53.8731 21.9733 53.6165 22.18 53.3631 22.36C53.1165 22.5333 52.8598 22.68 52.5931 22.8C52.3265 22.92 52.0431 23.01 51.7431 23.07C51.4431 23.13 51.1098 23.16 50.7431 23.16C50.3098 23.16 49.9098 23.1033 49.5431 22.99C49.1765 22.87 48.8598 22.6933 48.5931 22.46C48.3331 22.2267 48.1298 21.9367 47.9831 21.59C47.8365 21.2433 47.7631 20.84 47.7631 20.38C47.7631 19.9933 47.8631 19.6133 48.0631 19.24C48.2698 18.86 48.6098 18.52 49.0831 18.22C49.5565 17.9133 50.1865 17.66 50.9731 17.46C51.7598 17.26 52.7365 17.1467 53.9031 17.12V16.52C53.9031 15.8333 53.7565 15.3267 53.4631 15C53.1765 14.6667 52.7565 14.5 52.2031 14.5C51.8031 14.5 51.4698 14.5467 51.2031 14.64C50.9365 14.7333 50.7031 14.84 50.5031 14.96C50.3098 15.0733 50.1298 15.1767 49.9631 15.27C49.7965 15.3633 49.6131 15.41 49.4131 15.41C49.2465 15.41 49.1031 15.3667 48.9831 15.28C48.8631 15.1933 48.7665 15.0867 48.6931 14.96L48.2431 14.17C49.4231 13.09 50.8465 12.55 52.5131 12.55C53.1131 12.55 53.6465 12.65 54.1131 12.85C54.5865 13.0433 54.9865 13.3167 55.3131 13.67C55.6398 14.0167 55.8865 14.4333 56.0531 14.92C56.2265 15.4067 56.3131 15.94 56.3131 16.52V23ZM51.5131 21.46C51.7665 21.46 51.9998 21.4367 52.2131 21.39C52.4265 21.3433 52.6265 21.2733 52.8131 21.18C53.0065 21.0867 53.1898 20.9733 53.3631 20.84C53.5431 20.7 53.7231 20.5367 53.9031 20.35V18.62C53.1831 18.6533 52.5798 18.7167 52.0931 18.81C51.6131 18.8967 51.2265 19.01 50.9331 19.15C50.6398 19.29 50.4298 19.4533 50.3031 19.64C50.1831 19.8267 50.1231 20.03 50.1231 20.25C50.1231 20.6833 50.2498 20.9933 50.5031 21.18C50.7631 21.3667 51.0998 21.46 51.5131 21.46ZM62.1119 23.16C61.2252 23.16 60.5419 22.91 60.0619 22.41C59.5819 21.9033 59.3419 21.2067 59.3419 20.32V14.59H58.3019C58.1685 14.59 58.0519 14.5467 57.9519 14.46C57.8585 14.3733 57.8119 14.2433 57.8119 14.07V13.09L59.4619 12.82L59.9819 10.02C60.0085 9.88667 60.0685 9.78333 60.1619 9.71C60.2619 9.63667 60.3852 9.6 60.5319 9.6H61.8119V12.83H64.5119V14.59H61.8119V20.15C61.8119 20.47 61.8919 20.72 62.0519 20.9C62.2119 21.08 62.4252 21.17 62.6919 21.17C62.8452 21.17 62.9719 21.1533 63.0719 21.12C63.1785 21.08 63.2685 21.04 63.3419 21C63.4219 20.96 63.4919 20.9233 63.5519 20.89C63.6119 20.85 63.6719 20.83 63.7319 20.83C63.8052 20.83 63.8652 20.85 63.9119 20.89C63.9585 20.9233 64.0085 20.9767 64.0619 21.05L64.8019 22.25C64.4419 22.55 64.0285 22.7767 63.5619 22.93C63.0952 23.0833 62.6119 23.16 62.1119 23.16ZM69.1063 12.74V23H66.6363V12.74H69.1063ZM69.4763 9.75C69.4763 9.96333 69.4329 10.1633 69.3463 10.35C69.2596 10.5367 69.1429 10.7 68.9963 10.84C68.8563 10.98 68.6896 11.0933 68.4963 11.18C68.3029 11.26 68.0963 11.3 67.8763 11.3C67.6629 11.3 67.4596 11.26 67.2663 11.18C67.0796 11.0933 66.9163 10.98 66.7763 10.84C66.6363 10.7 66.5229 10.5367 66.4363 10.35C66.3563 10.1633 66.3163 9.96333 66.3163 9.75C66.3163 9.53 66.3563 9.32333 66.4363 9.13C66.5229 8.93667 66.6363 8.77 66.7763 8.63C66.9163 8.49 67.0796 8.38 67.2663 8.3C67.4596 8.21333 67.6629 8.17 67.8763 8.17C68.0963 8.17 68.3029 8.21333 68.4963 8.3C68.6896 8.38 68.8563 8.49 68.9963 8.63C69.1429 8.77 69.2596 8.93667 69.3463 9.13C69.4329 9.32333 69.4763 9.53 69.4763 9.75ZM76.2859 12.58C77.0526 12.58 77.7459 12.7033 78.3659 12.95C78.9926 13.1967 79.5259 13.5467 79.9659 14C80.4059 14.4533 80.7459 15.0067 80.9859 15.66C81.2259 16.3133 81.3459 17.0433 81.3459 17.85C81.3459 18.6633 81.2259 19.3967 80.9859 20.05C80.7459 20.7033 80.4059 21.26 79.9659 21.72C79.5259 22.18 78.9926 22.5333 78.3659 22.78C77.7459 23.0267 77.0526 23.15 76.2859 23.15C75.5193 23.15 74.8226 23.0267 74.1959 22.78C73.5693 22.5333 73.0326 22.18 72.5859 21.72C72.1459 21.26 71.8026 20.7033 71.5559 20.05C71.3159 19.3967 71.1959 18.6633 71.1959 17.85C71.1959 17.0433 71.3159 16.3133 71.5559 15.66C71.8026 15.0067 72.1459 14.4533 72.5859 14C73.0326 13.5467 73.5693 13.1967 74.1959 12.95C74.8226 12.7033 75.5193 12.58 76.2859 12.58ZM76.2859 21.25C77.1393 21.25 77.7693 20.9633 78.1759 20.39C78.5893 19.8167 78.7959 18.9767 78.7959 17.87C78.7959 16.7633 78.5893 15.92 78.1759 15.34C77.7693 14.76 77.1393 14.47 76.2859 14.47C75.4193 14.47 74.7793 14.7633 74.3659 15.35C73.9526 15.93 73.7459 16.77 73.7459 17.87C73.7459 18.97 73.9526 19.81 74.3659 20.39C74.7793 20.9633 75.4193 21.25 76.2859 21.25ZM83.2731 23V12.74H84.7831C85.1031 12.74 85.3131 12.89 85.4131 13.19L85.5831 14C85.7898 13.7867 86.0065 13.5933 86.2331 13.42C86.4665 13.2467 86.7098 13.0967 86.9631 12.97C87.2231 12.8433 87.4998 12.7467 87.7931 12.68C88.0865 12.6133 88.4065 12.58 88.7531 12.58C89.3131 12.58 89.8098 12.6767 90.2431 12.87C90.6765 13.0567 91.0365 13.3233 91.3231 13.67C91.6165 14.01 91.8365 14.42 91.9831 14.9C92.1365 15.3733 92.2131 15.8967 92.2131 16.47V23H89.7431V16.47C89.7431 15.8433 89.5965 15.36 89.3031 15.02C89.0165 14.6733 88.5831 14.5 88.0031 14.5C87.5765 14.5 87.1765 14.5967 86.8031 14.79C86.4298 14.9833 86.0765 15.2467 85.7431 15.58V23H83.2731ZM102.888 12.58C103.654 12.58 104.348 12.7033 104.968 12.95C105.594 13.1967 106.128 13.5467 106.568 14C107.008 14.4533 107.348 15.0067 107.588 15.66C107.828 16.3133 107.948 17.0433 107.948 17.85C107.948 18.6633 107.828 19.3967 107.588 20.05C107.348 20.7033 107.008 21.26 106.568 21.72C106.128 22.18 105.594 22.5333 104.968 22.78C104.348 23.0267 103.654 23.15 102.888 23.15C102.121 23.15 101.424 23.0267 100.798 22.78C100.171 22.5333 99.6342 22.18 99.1875 21.72C98.7475 21.26 98.4042 20.7033 98.1575 20.05C97.9175 19.3967 97.7975 18.6633 97.7975 17.85C97.7975 17.0433 97.9175 16.3133 98.1575 15.66C98.4042 15.0067 98.7475 14.4533 99.1875 14C99.6342 13.5467 100.171 13.1967 100.798 12.95C101.424 12.7033 102.121 12.58 102.888 12.58ZM102.888 21.25C103.741 21.25 104.371 20.9633 104.778 20.39C105.191 19.8167 105.398 18.9767 105.398 17.87C105.398 16.7633 105.191 15.92 104.778 15.34C104.371 14.76 103.741 14.47 102.888 14.47C102.021 14.47 101.381 14.7633 100.968 15.35C100.554 15.93 100.348 16.77 100.348 17.87C100.348 18.97 100.554 19.81 100.968 20.39C101.381 20.9633 102.021 21.25 102.888 21.25ZM110.315 23V14.6L109.425 14.46C109.231 14.4267 109.075 14.36 108.955 14.26C108.841 14.16 108.785 14.02 108.785 13.84V12.83H110.315V12.07C110.315 11.4833 110.401 10.9567 110.575 10.49C110.755 10.0233 111.008 9.62667 111.335 9.3C111.668 8.97333 112.071 8.72333 112.545 8.55C113.018 8.37667 113.551 8.29 114.145 8.29C114.618 8.29 115.058 8.35333 115.465 8.48L115.415 9.72C115.401 9.91333 115.311 10.0333 115.145 10.08C114.978 10.1267 114.785 10.15 114.565 10.15C114.271 10.15 114.008 10.1833 113.775 10.25C113.548 10.31 113.355 10.42 113.195 10.58C113.035 10.7333 112.911 10.94 112.825 11.2C112.745 11.4533 112.705 11.77 112.705 12.15V12.83H115.375V14.59H112.785V23H110.315ZM124.124 23.16C123.237 23.16 122.554 22.91 122.074 22.41C121.594 21.9033 121.354 21.2067 121.354 20.32V14.59H120.314C120.18 14.59 120.064 14.5467 119.964 14.46C119.87 14.3733 119.824 14.2433 119.824 14.07V13.09L121.474 12.82L121.994 10.02C122.02 9.88667 122.08 9.78333 122.174 9.71C122.274 9.63667 122.397 9.6 122.544 9.6H123.824V12.83H126.524V14.59H123.824V20.15C123.824 20.47 123.904 20.72 124.064 20.9C124.224 21.08 124.437 21.17 124.704 21.17C124.857 21.17 124.984 21.1533 125.084 21.12C125.19 21.08 125.28 21.04 125.354 21C125.434 20.96 125.504 20.9233 125.564 20.89C125.624 20.85 125.684 20.83 125.744 20.83C125.817 20.83 125.877 20.85 125.924 20.89C125.97 20.9233 126.02 20.9767 126.074 21.05L126.814 22.25C126.454 22.55 126.04 22.7767 125.574 22.93C125.107 23.0833 124.624 23.16 124.124 23.16ZM128.488 23V8.14H130.958V13.85C131.358 13.47 131.798 13.1633 132.278 12.93C132.758 12.6967 133.321 12.58 133.968 12.58C134.528 12.58 135.025 12.6767 135.458 12.87C135.891 13.0567 136.251 13.3233 136.538 13.67C136.831 14.01 137.051 14.42 137.198 14.9C137.351 15.3733 137.428 15.8967 137.428 16.47V23H134.958V16.47C134.958 15.8433 134.811 15.36 134.518 15.02C134.231 14.6733 133.798 14.5 133.218 14.5C132.791 14.5 132.391 14.5967 132.018 14.79C131.645 14.9833 131.291 15.2467 130.958 15.58V23H128.488ZM144.095 12.58C144.742 12.58 145.335 12.6833 145.875 12.89C146.422 13.0967 146.892 13.4 147.285 13.8C147.678 14.1933 147.985 14.68 148.205 15.26C148.425 15.8333 148.535 16.49 148.535 17.23C148.535 17.4167 148.525 17.5733 148.505 17.7C148.492 17.82 148.462 17.9167 148.415 17.99C148.375 18.0567 148.318 18.1067 148.245 18.14C148.172 18.1667 148.078 18.18 147.965 18.18H141.625C141.698 19.2333 141.982 20.0067 142.475 20.5C142.968 20.9933 143.622 21.24 144.435 21.24C144.835 21.24 145.178 21.1933 145.465 21.1C145.758 21.0067 146.012 20.9033 146.225 20.79C146.445 20.6767 146.635 20.5733 146.795 20.48C146.962 20.3867 147.122 20.34 147.275 20.34C147.375 20.34 147.462 20.36 147.535 20.4C147.608 20.44 147.672 20.4967 147.725 20.57L148.445 21.47C148.172 21.79 147.865 22.06 147.525 22.28C147.185 22.4933 146.828 22.6667 146.455 22.8C146.088 22.9267 145.712 23.0167 145.325 23.07C144.945 23.1233 144.575 23.15 144.215 23.15C143.502 23.15 142.838 23.0333 142.225 22.8C141.612 22.56 141.078 22.21 140.625 21.75C140.172 21.2833 139.815 20.71 139.555 20.03C139.295 19.3433 139.165 18.55 139.165 17.65C139.165 16.95 139.278 16.2933 139.505 15.68C139.732 15.06 140.055 14.5233 140.475 14.07C140.902 13.61 141.418 13.2467 142.025 12.98C142.638 12.7133 143.328 12.58 144.095 12.58ZM144.145 14.35C143.425 14.35 142.862 14.5533 142.455 14.96C142.048 15.3667 141.788 15.9433 141.675 16.69H146.315C146.315 16.37 146.272 16.07 146.185 15.79C146.098 15.5033 145.965 15.2533 145.785 15.04C145.605 14.8267 145.378 14.66 145.105 14.54C144.832 14.4133 144.512 14.35 144.145 14.35ZM158.786 12.58C159.553 12.58 160.246 12.7033 160.866 12.95C161.493 13.1967 162.026 13.5467 162.466 14C162.906 14.4533 163.246 15.0067 163.486 15.66C163.726 16.3133 163.846 17.0433 163.846 17.85C163.846 18.6633 163.726 19.3967 163.486 20.05C163.246 20.7033 162.906 21.26 162.466 21.72C162.026 22.18 161.493 22.5333 160.866 22.78C160.246 23.0267 159.553 23.15 158.786 23.15C158.019 23.15 157.323 23.0267 156.696 22.78C156.069 22.5333 155.533 22.18 155.086 21.72C154.646 21.26 154.303 20.7033 154.056 20.05C153.816 19.3967 153.696 18.6633 153.696 17.85C153.696 17.0433 153.816 16.3133 154.056 15.66C154.303 15.0067 154.646 14.4533 155.086 14C155.533 13.5467 156.069 13.1967 156.696 12.95C157.323 12.7033 158.019 12.58 158.786 12.58ZM158.786 21.25C159.639 21.25 160.269 20.9633 160.676 20.39C161.089 19.8167 161.296 18.9767 161.296 17.87C161.296 16.7633 161.089 15.92 160.676 15.34C160.269 14.76 159.639 14.47 158.786 14.47C157.919 14.47 157.279 14.7633 156.866 15.35C156.453 15.93 156.246 16.77 156.246 17.87C156.246 18.97 156.453 19.81 156.866 20.39C157.279 20.9633 157.919 21.25 158.786 21.25ZM165.773 23V12.74H167.223C167.476 12.74 167.653 12.7867 167.753 12.88C167.853 12.9733 167.92 13.1333 167.953 13.36L168.103 14.6C168.47 13.9667 168.9 13.4667 169.393 13.1C169.886 12.7333 170.44 12.55 171.053 12.55C171.56 12.55 171.98 12.6667 172.313 12.9L171.993 14.75C171.973 14.87 171.93 14.9567 171.863 15.01C171.796 15.0567 171.706 15.08 171.593 15.08C171.493 15.08 171.356 15.0567 171.183 15.01C171.01 14.9633 170.78 14.94 170.493 14.94C169.98 14.94 169.54 15.0833 169.173 15.37C168.806 15.65 168.496 16.0633 168.243 16.61V23H165.773ZM177.487 12.56C177.927 12.56 178.341 12.6067 178.727 12.7C179.114 12.7867 179.467 12.9167 179.787 13.09H182.737V14.01C182.737 14.1633 182.697 14.2833 182.617 14.37C182.537 14.4567 182.401 14.5167 182.207 14.55L181.287 14.72C181.354 14.8933 181.404 15.0767 181.437 15.27C181.477 15.4633 181.497 15.6667 181.497 15.88C181.497 16.3867 181.394 16.8467 181.187 17.26C180.987 17.6667 180.707 18.0133 180.347 18.3C179.994 18.5867 179.571 18.81 179.077 18.97C178.591 19.1233 178.061 19.2 177.487 19.2C177.101 19.2 176.724 19.1633 176.357 19.09C176.037 19.2833 175.877 19.5 175.877 19.74C175.877 19.9467 175.971 20.1 176.157 20.2C176.351 20.2933 176.601 20.36 176.907 20.4C177.221 20.44 177.574 20.4667 177.967 20.48C178.361 20.4867 178.764 20.5067 179.177 20.54C179.591 20.5733 179.994 20.6333 180.387 20.72C180.781 20.8 181.131 20.93 181.437 21.11C181.751 21.29 182.001 21.5367 182.187 21.85C182.381 22.1567 182.477 22.5533 182.477 23.04C182.477 23.4933 182.364 23.9333 182.137 24.36C181.917 24.7867 181.594 25.1667 181.167 25.5C180.747 25.8333 180.231 26.1 179.617 26.3C179.004 26.5067 178.304 26.61 177.517 26.61C176.737 26.61 176.061 26.5333 175.487 26.38C174.914 26.2333 174.437 26.0333 174.057 25.78C173.684 25.5333 173.404 25.2467 173.217 24.92C173.031 24.5933 172.937 24.2533 172.937 23.9C172.937 23.42 173.084 23.0167 173.377 22.69C173.671 22.3633 174.077 22.1033 174.597 21.91C174.344 21.77 174.141 21.5833 173.987 21.35C173.834 21.1167 173.757 20.8133 173.757 20.44C173.757 20.2867 173.784 20.13 173.837 19.97C173.891 19.8033 173.971 19.64 174.077 19.48C174.191 19.32 174.331 19.17 174.497 19.03C174.664 18.8833 174.861 18.7533 175.087 18.64C174.567 18.36 174.157 17.9867 173.857 17.52C173.564 17.0533 173.417 16.5067 173.417 15.88C173.417 15.3733 173.517 14.9167 173.717 14.51C173.924 14.0967 174.207 13.7467 174.567 13.46C174.934 13.1667 175.364 12.9433 175.857 12.79C176.357 12.6367 176.901 12.56 177.487 12.56ZM180.197 23.46C180.197 23.26 180.137 23.0967 180.017 22.97C179.897 22.8433 179.734 22.7467 179.527 22.68C179.321 22.6067 179.077 22.5533 178.797 22.52C178.524 22.4867 178.231 22.4633 177.917 22.45C177.611 22.43 177.291 22.4133 176.957 22.4C176.631 22.38 176.314 22.35 176.007 22.31C175.727 22.4633 175.501 22.6467 175.327 22.86C175.161 23.0667 175.077 23.3067 175.077 23.58C175.077 23.76 175.121 23.9267 175.207 24.08C175.301 24.24 175.444 24.3767 175.637 24.49C175.837 24.6033 176.094 24.69 176.407 24.75C176.721 24.8167 177.104 24.85 177.557 24.85C178.017 24.85 178.414 24.8133 178.747 24.74C179.081 24.6733 179.354 24.5767 179.567 24.45C179.787 24.33 179.947 24.1833 180.047 24.01C180.147 23.8433 180.197 23.66 180.197 23.46ZM177.487 17.62C177.794 17.62 178.061 17.58 178.287 17.5C178.514 17.4133 178.701 17.2967 178.847 17.15C179.001 17.0033 179.114 16.8267 179.187 16.62C179.267 16.4133 179.307 16.1867 179.307 15.94C179.307 15.4333 179.154 15.0333 178.847 14.74C178.547 14.44 178.094 14.29 177.487 14.29C176.881 14.29 176.424 14.44 176.117 14.74C175.817 15.0333 175.667 15.4333 175.667 15.94C175.667 16.18 175.704 16.4033 175.777 16.61C175.857 16.8167 175.971 16.9967 176.117 17.15C176.271 17.2967 176.461 17.4133 176.687 17.5C176.921 17.58 177.187 17.62 177.487 17.62ZM192.329 23H191.219C190.985 23 190.802 22.9667 190.669 22.9C190.535 22.8267 190.435 22.6833 190.369 22.47L190.149 21.74C189.889 21.9733 189.632 22.18 189.379 22.36C189.132 22.5333 188.875 22.68 188.609 22.8C188.342 22.92 188.059 23.01 187.759 23.07C187.459 23.13 187.125 23.16 186.759 23.16C186.325 23.16 185.925 23.1033 185.559 22.99C185.192 22.87 184.875 22.6933 184.609 22.46C184.349 22.2267 184.145 21.9367 183.999 21.59C183.852 21.2433 183.779 20.84 183.779 20.38C183.779 19.9933 183.879 19.6133 184.079 19.24C184.285 18.86 184.625 18.52 185.099 18.22C185.572 17.9133 186.202 17.66 186.989 17.46C187.775 17.26 188.752 17.1467 189.919 17.12V16.52C189.919 15.8333 189.772 15.3267 189.479 15C189.192 14.6667 188.772 14.5 188.219 14.5C187.819 14.5 187.485 14.5467 187.219 14.64C186.952 14.7333 186.719 14.84 186.519 14.96C186.325 15.0733 186.145 15.1767 185.979 15.27C185.812 15.3633 185.629 15.41 185.429 15.41C185.262 15.41 185.119 15.3667 184.999 15.28C184.879 15.1933 184.782 15.0867 184.709 14.96L184.259 14.17C185.439 13.09 186.862 12.55 188.529 12.55C189.129 12.55 189.662 12.65 190.129 12.85C190.602 13.0433 191.002 13.3167 191.329 13.67C191.655 14.0167 191.902 14.4333 192.069 14.92C192.242 15.4067 192.329 15.94 192.329 16.52V23ZM187.529 21.46C187.782 21.46 188.015 21.4367 188.229 21.39C188.442 21.3433 188.642 21.2733 188.829 21.18C189.022 21.0867 189.205 20.9733 189.379 20.84C189.559 20.7 189.739 20.5367 189.919 20.35V18.62C189.199 18.6533 188.595 18.7167 188.109 18.81C187.629 18.8967 187.242 19.01 186.949 19.15C186.655 19.29 186.445 19.4533 186.319 19.64C186.199 19.8267 186.139 20.03 186.139 20.25C186.139 20.6833 186.265 20.9933 186.519 21.18C186.779 21.3667 187.115 21.46 187.529 21.46ZM194.757 23V12.74H196.268C196.588 12.74 196.798 12.89 196.898 13.19L197.068 14C197.274 13.7867 197.491 13.5933 197.718 13.42C197.951 13.2467 198.194 13.0967 198.448 12.97C198.708 12.8433 198.984 12.7467 199.278 12.68C199.571 12.6133 199.891 12.58 200.238 12.58C200.798 12.58 201.294 12.6767 201.728 12.87C202.161 13.0567 202.521 13.3233 202.808 13.67C203.101 14.01 203.321 14.42 203.468 14.9C203.621 15.3733 203.698 15.8967 203.698 16.47V23H201.228V16.47C201.228 15.8433 201.081 15.36 200.788 15.02C200.501 14.6733 200.068 14.5 199.488 14.5C199.061 14.5 198.661 14.5967 198.288 14.79C197.914 14.9833 197.561 15.2467 197.228 15.58V23H194.757ZM208.755 12.74V23H206.285V12.74H208.755ZM209.125 9.75C209.125 9.96333 209.081 10.1633 208.995 10.35C208.908 10.5367 208.791 10.7 208.645 10.84C208.505 10.98 208.338 11.0933 208.145 11.18C207.951 11.26 207.745 11.3 207.525 11.3C207.311 11.3 207.108 11.26 206.915 11.18C206.728 11.0933 206.565 10.98 206.425 10.84C206.285 10.7 206.171 10.5367 206.085 10.35C206.005 10.1633 205.965 9.96333 205.965 9.75C205.965 9.53 206.005 9.32333 206.085 9.13C206.171 8.93667 206.285 8.77 206.425 8.63C206.565 8.49 206.728 8.38 206.915 8.3C207.108 8.21333 207.311 8.17 207.525 8.17C207.745 8.17 207.951 8.21333 208.145 8.3C208.338 8.38 208.505 8.49 208.645 8.63C208.791 8.77 208.908 8.93667 208.995 9.13C209.081 9.32333 209.125 9.53 209.125 9.75ZM218.974 13.76C218.974 13.9333 218.941 14.1033 218.874 14.27C218.814 14.43 218.741 14.5667 218.654 14.68L213.774 21.1H218.834V23H210.904V21.97C210.904 21.8567 210.931 21.7233 210.984 21.57C211.038 21.41 211.121 21.26 211.234 21.12L216.154 14.63H211.194V12.74H218.974V13.76ZM228.989 23H227.879C227.646 23 227.462 22.9667 227.329 22.9C227.196 22.8267 227.096 22.6833 227.029 22.47L226.809 21.74C226.549 21.9733 226.292 22.18 226.039 22.36C225.792 22.5333 225.536 22.68 225.269 22.8C225.002 22.92 224.719 23.01 224.419 23.07C224.119 23.13 223.786 23.16 223.419 23.16C222.986 23.16 222.586 23.1033 222.219 22.99C221.852 22.87 221.536 22.6933 221.269 22.46C221.009 22.2267 220.806 21.9367 220.659 21.59C220.512 21.2433 220.439 20.84 220.439 20.38C220.439 19.9933 220.539 19.6133 220.739 19.24C220.946 18.86 221.286 18.52 221.759 18.22C222.232 17.9133 222.862 17.66 223.649 17.46C224.436 17.26 225.412 17.1467 226.579 17.12V16.52C226.579 15.8333 226.432 15.3267 226.139 15C225.852 14.6667 225.432 14.5 224.879 14.5C224.479 14.5 224.146 14.5467 223.879 14.64C223.612 14.7333 223.379 14.84 223.179 14.96C222.986 15.0733 222.806 15.1767 222.639 15.27C222.472 15.3633 222.289 15.41 222.089 15.41C221.922 15.41 221.779 15.3667 221.659 15.28C221.539 15.1933 221.442 15.0867 221.369 14.96L220.919 14.17C222.099 13.09 223.522 12.55 225.189 12.55C225.789 12.55 226.322 12.65 226.789 12.85C227.262 13.0433 227.662 13.3167 227.989 13.67C228.316 14.0167 228.562 14.4333 228.729 14.92C228.902 15.4067 228.989 15.94 228.989 16.52V23ZM224.189 21.46C224.442 21.46 224.676 21.4367 224.889 21.39C225.102 21.3433 225.302 21.2733 225.489 21.18C225.682 21.0867 225.866 20.9733 226.039 20.84C226.219 20.7 226.399 20.5367 226.579 20.35V18.62C225.859 18.6533 225.256 18.7167 224.769 18.81C224.289 18.8967 223.902 19.01 223.609 19.15C223.316 19.29 223.106 19.4533 222.979 19.64C222.859 19.8267 222.799 20.03 222.799 20.25C222.799 20.6833 222.926 20.9933 223.179 21.18C223.439 21.3667 223.776 21.46 224.189 21.46ZM234.788 23.16C233.901 23.16 233.218 22.91 232.738 22.41C232.258 21.9033 232.018 21.2067 232.018 20.32V14.59H230.978C230.844 14.59 230.728 14.5467 230.628 14.46C230.534 14.3733 230.488 14.2433 230.488 14.07V13.09L232.138 12.82L232.658 10.02C232.684 9.88667 232.744 9.78333 232.838 9.71C232.938 9.63667 233.061 9.6 233.208 9.6H234.488V12.83H237.188V14.59H234.488V20.15C234.488 20.47 234.568 20.72 234.728 20.9C234.888 21.08 235.101 21.17 235.368 21.17C235.521 21.17 235.648 21.1533 235.748 21.12C235.854 21.08 235.944 21.04 236.018 21C236.098 20.96 236.168 20.9233 236.228 20.89C236.288 20.85 236.348 20.83 236.408 20.83C236.481 20.83 236.541 20.85 236.588 20.89C236.634 20.9233 236.684 20.9767 236.738 21.05L237.478 22.25C237.118 22.55 236.704 22.7767 236.238 22.93C235.771 23.0833 235.288 23.16 234.788 23.16ZM241.782 12.74V23H239.312V12.74H241.782ZM242.152 9.75C242.152 9.96333 242.109 10.1633 242.022 10.35C241.935 10.5367 241.819 10.7 241.672 10.84C241.532 10.98 241.365 11.0933 241.172 11.18C240.979 11.26 240.772 11.3 240.552 11.3C240.339 11.3 240.135 11.26 239.942 11.18C239.755 11.0933 239.592 10.98 239.452 10.84C239.312 10.7 239.199 10.5367 239.112 10.35C239.032 10.1633 238.992 9.96333 238.992 9.75C238.992 9.53 239.032 9.32333 239.112 9.13C239.199 8.93667 239.312 8.77 239.452 8.63C239.592 8.49 239.755 8.38 239.942 8.3C240.135 8.21333 240.339 8.17 240.552 8.17C240.772 8.17 240.979 8.21333 241.172 8.3C241.365 8.38 241.532 8.49 241.672 8.63C241.819 8.77 241.935 8.93667 242.022 9.13C242.109 9.32333 242.152 9.53 242.152 9.75ZM248.962 12.58C249.728 12.58 250.422 12.7033 251.042 12.95C251.668 13.1967 252.202 13.5467 252.642 14C253.082 14.4533 253.422 15.0067 253.662 15.66C253.902 16.3133 254.022 17.0433 254.022 17.85C254.022 18.6633 253.902 19.3967 253.662 20.05C253.422 20.7033 253.082 21.26 252.642 21.72C252.202 22.18 251.668 22.5333 251.042 22.78C250.422 23.0267 249.728 23.15 248.962 23.15C248.195 23.15 247.498 23.0267 246.872 22.78C246.245 22.5333 245.708 22.18 245.262 21.72C244.822 21.26 244.478 20.7033 244.232 20.05C243.992 19.3967 243.872 18.6633 243.872 17.85C243.872 17.0433 243.992 16.3133 244.232 15.66C244.478 15.0067 244.822 14.4533 245.262 14C245.708 13.5467 246.245 13.1967 246.872 12.95C247.498 12.7033 248.195 12.58 248.962 12.58ZM248.962 21.25C249.815 21.25 250.445 20.9633 250.852 20.39C251.265 19.8167 251.472 18.9767 251.472 17.87C251.472 16.7633 251.265 15.92 250.852 15.34C250.445 14.76 249.815 14.47 248.962 14.47C248.095 14.47 247.455 14.7633 247.042 15.35C246.628 15.93 246.422 16.77 246.422 17.87C246.422 18.97 246.628 19.81 247.042 20.39C247.455 20.9633 248.095 21.25 248.962 21.25ZM255.949 23V12.74H257.459C257.779 12.74 257.989 12.89 258.089 13.19L258.259 14C258.466 13.7867 258.682 13.5933 258.909 13.42C259.142 13.2467 259.386 13.0967 259.639 12.97C259.899 12.8433 260.176 12.7467 260.469 12.68C260.762 12.6133 261.082 12.58 261.429 12.58C261.989 12.58 262.486 12.6767 262.919 12.87C263.352 13.0567 263.712 13.3233 263.999 13.67C264.292 14.01 264.512 14.42 264.659 14.9C264.812 15.3733 264.889 15.8967 264.889 16.47V23H262.419V16.47C262.419 15.8433 262.272 15.36 261.979 15.02C261.692 14.6733 261.259 14.5 260.679 14.5C260.252 14.5 259.852 14.5967 259.479 14.79C259.106 14.9833 258.752 15.2467 258.419 15.58V23H255.949ZM275.356 23H274.246C274.013 23 273.829 22.9667 273.696 22.9C273.563 22.8267 273.463 22.6833 273.396 22.47L273.176 21.74C272.916 21.9733 272.659 22.18 272.406 22.36C272.159 22.5333 271.903 22.68 271.636 22.8C271.369 22.92 271.086 23.01 270.786 23.07C270.486 23.13 270.153 23.16 269.786 23.16C269.353 23.16 268.953 23.1033 268.586 22.99C268.219 22.87 267.903 22.6933 267.636 22.46C267.376 22.2267 267.173 21.9367 267.026 21.59C266.879 21.2433 266.806 20.84 266.806 20.38C266.806 19.9933 266.906 19.6133 267.106 19.24C267.313 18.86 267.653 18.52 268.126 18.22C268.599 17.9133 269.229 17.66 270.016 17.46C270.803 17.26 271.779 17.1467 272.946 17.12V16.52C272.946 15.8333 272.799 15.3267 272.506 15C272.219 14.6667 271.799 14.5 271.246 14.5C270.846 14.5 270.513 14.5467 270.246 14.64C269.979 14.7333 269.746 14.84 269.546 14.96C269.353 15.0733 269.173 15.1767 269.006 15.27C268.839 15.3633 268.656 15.41 268.456 15.41C268.289 15.41 268.146 15.3667 268.026 15.28C267.906 15.1933 267.809 15.0867 267.736 14.96L267.286 14.17C268.466 13.09 269.889 12.55 271.556 12.55C272.156 12.55 272.689 12.65 273.156 12.85C273.629 13.0433 274.029 13.3167 274.356 13.67C274.683 14.0167 274.929 14.4333 275.096 14.92C275.269 15.4067 275.356 15.94 275.356 16.52V23ZM270.556 21.46C270.809 21.46 271.043 21.4367 271.256 21.39C271.469 21.3433 271.669 21.2733 271.856 21.18C272.049 21.0867 272.233 20.9733 272.406 20.84C272.586 20.7 272.766 20.5367 272.946 20.35V18.62C272.226 18.6533 271.623 18.7167 271.136 18.81C270.656 18.8967 270.269 19.01 269.976 19.15C269.683 19.29 269.473 19.4533 269.346 19.64C269.226 19.8267 269.166 20.03 269.166 20.25C269.166 20.6833 269.293 20.9933 269.546 21.18C269.806 21.3667 270.143 21.46 270.556 21.46ZM280.415 8.14V23H277.945V8.14H280.415ZM293.172 14.74C293.105 14.8467 293.035 14.9233 292.962 14.97C292.888 15.01 292.795 15.03 292.682 15.03C292.562 15.03 292.432 14.9967 292.292 14.93C292.158 14.8633 292.002 14.79 291.822 14.71C291.642 14.6233 291.435 14.5467 291.202 14.48C290.975 14.4133 290.705 14.38 290.392 14.38C289.905 14.38 289.522 14.4833 289.242 14.69C288.962 14.8967 288.822 15.1667 288.822 15.5C288.822 15.72 288.892 15.9067 289.032 16.06C289.178 16.2067 289.368 16.3367 289.602 16.45C289.842 16.5633 290.112 16.6667 290.412 16.76C290.712 16.8467 291.018 16.9433 291.332 17.05C291.645 17.1567 291.952 17.28 292.252 17.42C292.552 17.5533 292.818 17.7267 293.052 17.94C293.292 18.1467 293.482 18.3967 293.622 18.69C293.768 18.9833 293.842 19.3367 293.842 19.75C293.842 20.2433 293.752 20.7 293.572 21.12C293.392 21.5333 293.128 21.8933 292.782 22.2C292.435 22.5 292.005 22.7367 291.492 22.91C290.985 23.0767 290.402 23.16 289.742 23.16C289.388 23.16 289.042 23.1267 288.702 23.06C288.368 23 288.045 22.9133 287.732 22.8C287.425 22.6867 287.138 22.5533 286.872 22.4C286.612 22.2467 286.382 22.08 286.182 21.9L286.752 20.96C286.825 20.8467 286.912 20.76 287.012 20.7C287.112 20.64 287.238 20.61 287.392 20.61C287.545 20.61 287.688 20.6533 287.822 20.74C287.962 20.8267 288.122 20.92 288.302 21.02C288.482 21.12 288.692 21.2133 288.932 21.3C289.178 21.3867 289.488 21.43 289.862 21.43C290.155 21.43 290.405 21.3967 290.612 21.33C290.825 21.2567 290.998 21.1633 291.132 21.05C291.272 20.9367 291.372 20.8067 291.432 20.66C291.498 20.5067 291.532 20.35 291.532 20.19C291.532 19.95 291.458 19.7533 291.312 19.6C291.172 19.4467 290.982 19.3133 290.742 19.2C290.508 19.0867 290.238 18.9867 289.932 18.9C289.632 18.8067 289.322 18.7067 289.002 18.6C288.688 18.4933 288.378 18.37 288.072 18.23C287.772 18.0833 287.502 17.9 287.262 17.68C287.028 17.46 286.838 17.19 286.692 16.87C286.552 16.55 286.482 16.1633 286.482 15.71C286.482 15.29 286.565 14.89 286.732 14.51C286.898 14.13 287.142 13.8 287.462 13.52C287.788 13.2333 288.192 13.0067 288.672 12.84C289.158 12.6667 289.718 12.58 290.352 12.58C291.058 12.58 291.702 12.6967 292.282 12.93C292.862 13.1633 293.345 13.47 293.732 13.85L293.172 14.74ZM299.182 23.16C298.296 23.16 297.612 22.91 297.132 22.41C296.652 21.9033 296.412 21.2067 296.412 20.32V14.59H295.372C295.239 14.59 295.122 14.5467 295.022 14.46C294.929 14.3733 294.882 14.2433 294.882 14.07V13.09L296.532 12.82L297.052 10.02C297.079 9.88667 297.139 9.78333 297.232 9.71C297.332 9.63667 297.456 9.6 297.602 9.6H298.882V12.83H301.582V14.59H298.882V20.15C298.882 20.47 298.962 20.72 299.122 20.9C299.282 21.08 299.496 21.17 299.762 21.17C299.916 21.17 300.042 21.1533 300.142 21.12C300.249 21.08 300.339 21.04 300.412 21C300.492 20.96 300.562 20.9233 300.622 20.89C300.682 20.85 300.742 20.83 300.802 20.83C300.876 20.83 300.936 20.85 300.982 20.89C301.029 20.9233 301.079 20.9767 301.132 21.05L301.872 22.25C301.512 22.55 301.099 22.7767 300.632 22.93C300.166 23.0833 299.682 23.16 299.182 23.16ZM303.547 23V12.74H304.997C305.25 12.74 305.427 12.7867 305.527 12.88C305.627 12.9733 305.693 13.1333 305.727 13.36L305.877 14.6C306.243 13.9667 306.673 13.4667 307.167 13.1C307.66 12.7333 308.213 12.55 308.827 12.55C309.333 12.55 309.753 12.6667 310.087 12.9L309.767 14.75C309.747 14.87 309.703 14.9567 309.637 15.01C309.57 15.0567 309.48 15.08 309.367 15.08C309.267 15.08 309.13 15.0567 308.957 15.01C308.783 14.9633 308.553 14.94 308.267 14.94C307.753 14.94 307.313 15.0833 306.947 15.37C306.58 15.65 306.27 16.0633 306.017 16.61V23H303.547ZM313.971 12.74V19.26C313.971 19.8867 314.114 20.3733 314.401 20.72C314.694 21.06 315.131 21.23 315.711 21.23C316.137 21.23 316.537 21.1367 316.911 20.95C317.284 20.7567 317.637 20.4933 317.971 20.16V12.74H320.441V23H318.931C318.611 23 318.401 22.85 318.301 22.55L318.131 21.73C317.917 21.9433 317.697 22.14 317.471 22.32C317.244 22.4933 317.001 22.6433 316.741 22.77C316.487 22.89 316.211 22.9833 315.911 23.05C315.617 23.1233 315.301 23.16 314.961 23.16C314.401 23.16 313.904 23.0667 313.471 22.88C313.044 22.6867 312.684 22.4167 312.391 22.07C312.097 21.7233 311.874 21.3133 311.721 20.84C311.574 20.36 311.501 19.8333 311.501 19.26V12.74H313.971ZM330.288 14.91C330.214 15.0033 330.141 15.0767 330.068 15.13C330.001 15.1833 329.901 15.21 329.768 15.21C329.641 15.21 329.518 15.1733 329.398 15.1C329.278 15.02 329.134 14.9333 328.968 14.84C328.801 14.74 328.601 14.6533 328.368 14.58C328.141 14.5 327.858 14.46 327.518 14.46C327.084 14.46 326.704 14.54 326.378 14.7C326.051 14.8533 325.778 15.0767 325.558 15.37C325.344 15.6633 325.184 16.02 325.078 16.44C324.971 16.8533 324.918 17.3233 324.918 17.85C324.918 18.3967 324.974 18.8833 325.088 19.31C325.208 19.7367 325.378 20.0967 325.598 20.39C325.818 20.6767 326.084 20.8967 326.398 21.05C326.711 21.1967 327.064 21.27 327.458 21.27C327.851 21.27 328.168 21.2233 328.408 21.13C328.654 21.03 328.861 20.9233 329.028 20.81C329.194 20.69 329.338 20.5833 329.458 20.49C329.584 20.39 329.724 20.34 329.878 20.34C330.078 20.34 330.228 20.4167 330.328 20.57L331.038 21.47C330.764 21.79 330.468 22.06 330.148 22.28C329.828 22.4933 329.494 22.6667 329.148 22.8C328.808 22.9267 328.454 23.0167 328.088 23.07C327.721 23.1233 327.358 23.15 326.998 23.15C326.364 23.15 325.768 23.0333 325.208 22.8C324.648 22.56 324.158 22.2133 323.738 21.76C323.324 21.3067 322.994 20.7533 322.748 20.1C322.508 19.44 322.388 18.69 322.388 17.85C322.388 17.0967 322.494 16.4 322.708 15.76C322.928 15.1133 323.248 14.5567 323.668 14.09C324.088 13.6167 324.608 13.2467 325.228 12.98C325.848 12.7133 326.561 12.58 327.368 12.58C328.134 12.58 328.804 12.7033 329.378 12.95C329.958 13.1967 330.478 13.55 330.938 14.01L330.288 14.91ZM335.979 23.16C335.092 23.16 334.409 22.91 333.929 22.41C333.449 21.9033 333.209 21.2067 333.209 20.32V14.59H332.169C332.036 14.59 331.919 14.5467 331.819 14.46C331.726 14.3733 331.679 14.2433 331.679 14.07V13.09L333.329 12.82L333.849 10.02C333.876 9.88667 333.936 9.78333 334.029 9.71C334.129 9.63667 334.252 9.6 334.399 9.6H335.679V12.83H338.379V14.59H335.679V20.15C335.679 20.47 335.759 20.72 335.919 20.9C336.079 21.08 336.292 21.17 336.559 21.17C336.712 21.17 336.839 21.1533 336.939 21.12C337.046 21.08 337.136 21.04 337.209 21C337.289 20.96 337.359 20.9233 337.419 20.89C337.479 20.85 337.539 20.83 337.599 20.83C337.672 20.83 337.732 20.85 337.779 20.89C337.826 20.9233 337.876 20.9767 337.929 21.05L338.669 22.25C338.309 22.55 337.896 22.7767 337.429 22.93C336.962 23.0833 336.479 23.16 335.979 23.16ZM342.603 12.74V19.26C342.603 19.8867 342.747 20.3733 343.033 20.72C343.327 21.06 343.763 21.23 344.343 21.23C344.77 21.23 345.17 21.1367 345.543 20.95C345.917 20.7567 346.27 20.4933 346.603 20.16V12.74H349.073V23H347.563C347.243 23 347.033 22.85 346.933 22.55L346.763 21.73C346.55 21.9433 346.33 22.14 346.103 22.32C345.877 22.4933 345.633 22.6433 345.373 22.77C345.12 22.89 344.843 22.9833 344.543 23.05C344.25 23.1233 343.933 23.16 343.593 23.16C343.033 23.16 342.537 23.0667 342.103 22.88C341.677 22.6867 341.317 22.4167 341.023 22.07C340.73 21.7233 340.507 21.3133 340.353 20.84C340.207 20.36 340.133 19.8333 340.133 19.26V12.74H342.603ZM351.711 23V12.74H353.161C353.414 12.74 353.591 12.7867 353.691 12.88C353.791 12.9733 353.857 13.1333 353.891 13.36L354.041 14.6C354.407 13.9667 354.837 13.4667 355.331 13.1C355.824 12.7333 356.377 12.55 356.991 12.55C357.497 12.55 357.917 12.6667 358.251 12.9L357.931 14.75C357.911 14.87 357.867 14.9567 357.801 15.01C357.734 15.0567 357.644 15.08 357.531 15.08C357.431 15.08 357.294 15.0567 357.121 15.01C356.947 14.9633 356.717 14.94 356.431 14.94C355.917 14.94 355.477 15.0833 355.111 15.37C354.744 15.65 354.434 16.0633 354.181 16.61V23H351.711ZM364.115 12.58C364.761 12.58 365.355 12.6833 365.895 12.89C366.441 13.0967 366.911 13.4 367.305 13.8C367.698 14.1933 368.005 14.68 368.225 15.26C368.445 15.8333 368.555 16.49 368.555 17.23C368.555 17.4167 368.545 17.5733 368.525 17.7C368.511 17.82 368.481 17.9167 368.435 17.99C368.395 18.0567 368.338 18.1067 368.265 18.14C368.191 18.1667 368.098 18.18 367.985 18.18H361.645C361.718 19.2333 362.001 20.0067 362.495 20.5C362.988 20.9933 363.641 21.24 364.455 21.24C364.855 21.24 365.198 21.1933 365.485 21.1C365.778 21.0067 366.031 20.9033 366.245 20.79C366.465 20.6767 366.655 20.5733 366.815 20.48C366.981 20.3867 367.141 20.34 367.295 20.34C367.395 20.34 367.481 20.36 367.555 20.4C367.628 20.44 367.691 20.4967 367.745 20.57L368.465 21.47C368.191 21.79 367.885 22.06 367.545 22.28C367.205 22.4933 366.848 22.6667 366.475 22.8C366.108 22.9267 365.731 23.0167 365.345 23.07C364.965 23.1233 364.595 23.15 364.235 23.15C363.521 23.15 362.858 23.0333 362.245 22.8C361.631 22.56 361.098 22.21 360.645 21.75C360.191 21.2833 359.835 20.71 359.575 20.03C359.315 19.3433 359.185 18.55 359.185 17.65C359.185 16.95 359.298 16.2933 359.525 15.68C359.751 15.06 360.075 14.5233 360.495 14.07C360.921 13.61 361.438 13.2467 362.045 12.98C362.658 12.7133 363.348 12.58 364.115 12.58ZM364.165 14.35C363.445 14.35 362.881 14.5533 362.475 14.96C362.068 15.3667 361.808 15.9433 361.695 16.69H366.335C366.335 16.37 366.291 16.07 366.205 15.79C366.118 15.5033 365.985 15.2533 365.805 15.04C365.625 14.8267 365.398 14.66 365.125 14.54C364.851 14.4133 364.531 14.35 364.165 14.35ZM378.805 12.58C379.572 12.58 380.265 12.7033 380.885 12.95C381.512 13.1967 382.045 13.5467 382.485 14C382.925 14.4533 383.265 15.0067 383.505 15.66C383.745 16.3133 383.865 17.0433 383.865 17.85C383.865 18.6633 383.745 19.3967 383.505 20.05C383.265 20.7033 382.925 21.26 382.485 21.72C382.045 22.18 381.512 22.5333 380.885 22.78C380.265 23.0267 379.572 23.15 378.805 23.15C378.039 23.15 377.342 23.0267 376.715 22.78C376.089 22.5333 375.552 22.18 375.105 21.72C374.665 21.26 374.322 20.7033 374.075 20.05C373.835 19.3967 373.715 18.6633 373.715 17.85C373.715 17.0433 373.835 16.3133 374.075 15.66C374.322 15.0067 374.665 14.4533 375.105 14C375.552 13.5467 376.089 13.1967 376.715 12.95C377.342 12.7033 378.039 12.58 378.805 12.58ZM378.805 21.25C379.659 21.25 380.289 20.9633 380.695 20.39C381.109 19.8167 381.315 18.9767 381.315 17.87C381.315 16.7633 381.109 15.92 380.695 15.34C380.289 14.76 379.659 14.47 378.805 14.47C377.939 14.47 377.299 14.7633 376.885 15.35C376.472 15.93 376.265 16.77 376.265 17.87C376.265 18.97 376.472 19.81 376.885 20.39C377.299 20.9633 377.939 21.25 378.805 21.25ZM386.233 23V14.6L385.343 14.46C385.149 14.4267 384.993 14.36 384.873 14.26C384.759 14.16 384.703 14.02 384.703 13.84V12.83H386.233V12.07C386.233 11.4833 386.319 10.9567 386.493 10.49C386.673 10.0233 386.926 9.62667 387.253 9.3C387.586 8.97333 387.989 8.72333 388.463 8.55C388.936 8.37667 389.469 8.29 390.063 8.29C390.536 8.29 390.976 8.35333 391.383 8.48L391.333 9.72C391.319 9.91333 391.229 10.0333 391.063 10.08C390.896 10.1267 390.703 10.15 390.483 10.15C390.189 10.15 389.926 10.1833 389.693 10.25C389.466 10.31 389.273 10.42 389.113 10.58C388.953 10.7333 388.829 10.94 388.743 11.2C388.663 11.4533 388.623 11.77 388.623 12.15V12.83H391.293V14.59H388.703V23H386.233ZM400.042 23.16C399.155 23.16 398.472 22.91 397.992 22.41C397.512 21.9033 397.272 21.2067 397.272 20.32V14.59H396.232C396.098 14.59 395.982 14.5467 395.882 14.46C395.788 14.3733 395.742 14.2433 395.742 14.07V13.09L397.392 12.82L397.912 10.02C397.938 9.88667 397.998 9.78333 398.092 9.71C398.192 9.63667 398.315 9.6 398.462 9.6H399.742V12.83H402.442V14.59H399.742V20.15C399.742 20.47 399.822 20.72 399.982 20.9C400.142 21.08 400.355 21.17 400.622 21.17C400.775 21.17 400.902 21.1533 401.002 21.12C401.108 21.08 401.198 21.04 401.272 21C401.352 20.96 401.422 20.9233 401.482 20.89C401.542 20.85 401.602 20.83 401.662 20.83C401.735 20.83 401.795 20.85 401.842 20.89C401.888 20.9233 401.938 20.9767 401.992 21.05L402.732 22.25C402.372 22.55 401.958 22.7767 401.492 22.93C401.025 23.0833 400.542 23.16 400.042 23.16ZM404.406 23V8.14H406.876V13.85C407.276 13.47 407.716 13.1633 408.196 12.93C408.676 12.6967 409.239 12.58 409.886 12.58C410.446 12.58 410.943 12.6767 411.376 12.87C411.809 13.0567 412.169 13.3233 412.456 13.67C412.749 14.01 412.969 14.42 413.116 14.9C413.269 15.3733 413.346 15.8967 413.346 16.47V23H410.876V16.47C410.876 15.8433 410.729 15.36 410.436 15.02C410.149 14.6733 409.716 14.5 409.136 14.5C408.709 14.5 408.309 14.5967 407.936 14.79C407.563 14.9833 407.209 15.2467 406.876 15.58V23H404.406ZM420.013 12.58C420.66 12.58 421.253 12.6833 421.793 12.89C422.34 13.0967 422.81 13.4 423.203 13.8C423.596 14.1933 423.903 14.68 424.123 15.26C424.343 15.8333 424.453 16.49 424.453 17.23C424.453 17.4167 424.443 17.5733 424.423 17.7C424.41 17.82 424.38 17.9167 424.333 17.99C424.293 18.0567 424.236 18.1067 424.163 18.14C424.09 18.1667 423.996 18.18 423.883 18.18H417.543C417.616 19.2333 417.9 20.0067 418.393 20.5C418.886 20.9933 419.54 21.24 420.353 21.24C420.753 21.24 421.096 21.1933 421.383 21.1C421.676 21.0067 421.93 20.9033 422.143 20.79C422.363 20.6767 422.553 20.5733 422.713 20.48C422.88 20.3867 423.04 20.34 423.193 20.34C423.293 20.34 423.38 20.36 423.453 20.4C423.526 20.44 423.59 20.4967 423.643 20.57L424.363 21.47C424.09 21.79 423.783 22.06 423.443 22.28C423.103 22.4933 422.746 22.6667 422.373 22.8C422.006 22.9267 421.63 23.0167 421.243 23.07C420.863 23.1233 420.493 23.15 420.133 23.15C419.42 23.15 418.756 23.0333 418.143 22.8C417.53 22.56 416.996 22.21 416.543 21.75C416.09 21.2833 415.733 20.71 415.473 20.03C415.213 19.3433 415.083 18.55 415.083 17.65C415.083 16.95 415.196 16.2933 415.423 15.68C415.65 15.06 415.973 14.5233 416.393 14.07C416.82 13.61 417.336 13.2467 417.943 12.98C418.556 12.7133 419.246 12.58 420.013 12.58ZM420.063 14.35C419.343 14.35 418.78 14.5533 418.373 14.96C417.966 15.3667 417.706 15.9433 417.593 16.69H422.233C422.233 16.37 422.19 16.07 422.103 15.79C422.016 15.5033 421.883 15.2533 421.703 15.04C421.523 14.8267 421.296 14.66 421.023 14.54C420.75 14.4133 420.43 14.35 420.063 14.35ZM437.534 14.91C437.461 15.0033 437.387 15.0767 437.314 15.13C437.247 15.1833 437.147 15.21 437.014 15.21C436.887 15.21 436.764 15.1733 436.644 15.1C436.524 15.02 436.381 14.9333 436.214 14.84C436.047 14.74 435.847 14.6533 435.614 14.58C435.387 14.5 435.104 14.46 434.764 14.46C434.331 14.46 433.951 14.54 433.624 14.7C433.297 14.8533 433.024 15.0767 432.804 15.37C432.591 15.6633 432.431 16.02 432.324 16.44C432.217 16.8533 432.164 17.3233 432.164 17.85C432.164 18.3967 432.221 18.8833 432.334 19.31C432.454 19.7367 432.624 20.0967 432.844 20.39C433.064 20.6767 433.331 20.8967 433.644 21.05C433.957 21.1967 434.311 21.27 434.704 21.27C435.097 21.27 435.414 21.2233 435.654 21.13C435.901 21.03 436.107 20.9233 436.274 20.81C436.441 20.69 436.584 20.5833 436.704 20.49C436.831 20.39 436.971 20.34 437.124 20.34C437.324 20.34 437.474 20.4167 437.574 20.57L438.284 21.47C438.011 21.79 437.714 22.06 437.394 22.28C437.074 22.4933 436.741 22.6667 436.394 22.8C436.054 22.9267 435.701 23.0167 435.334 23.07C434.967 23.1233 434.604 23.15 434.244 23.15C433.611 23.15 433.014 23.0333 432.454 22.8C431.894 22.56 431.404 22.2133 430.984 21.76C430.571 21.3067 430.241 20.7533 429.994 20.1C429.754 19.44 429.634 18.69 429.634 17.85C429.634 17.0967 429.741 16.4 429.954 15.76C430.174 15.1133 430.494 14.5567 430.914 14.09C431.334 13.6167 431.854 13.2467 432.474 12.98C433.094 12.7133 433.807 12.58 434.614 12.58C435.381 12.58 436.051 12.7033 436.624 12.95C437.204 13.1967 437.724 13.55 438.184 14.01L437.534 14.91ZM444.235 12.58C445.002 12.58 445.695 12.7033 446.315 12.95C446.942 13.1967 447.475 13.5467 447.915 14C448.355 14.4533 448.695 15.0067 448.935 15.66C449.175 16.3133 449.295 17.0433 449.295 17.85C449.295 18.6633 449.175 19.3967 448.935 20.05C448.695 20.7033 448.355 21.26 447.915 21.72C447.475 22.18 446.942 22.5333 446.315 22.78C445.695 23.0267 445.002 23.15 444.235 23.15C443.468 23.15 442.772 23.0267 442.145 22.78C441.518 22.5333 440.982 22.18 440.535 21.72C440.095 21.26 439.752 20.7033 439.505 20.05C439.265 19.3967 439.145 18.6633 439.145 17.85C439.145 17.0433 439.265 16.3133 439.505 15.66C439.752 15.0067 440.095 14.4533 440.535 14C440.982 13.5467 441.518 13.1967 442.145 12.95C442.772 12.7033 443.468 12.58 444.235 12.58ZM444.235 21.25C445.088 21.25 445.718 20.9633 446.125 20.39C446.538 19.8167 446.745 18.9767 446.745 17.87C446.745 16.7633 446.538 15.92 446.125 15.34C445.718 14.76 445.088 14.47 444.235 14.47C443.368 14.47 442.728 14.7633 442.315 15.35C441.902 15.93 441.695 16.77 441.695 17.87C441.695 18.97 441.902 19.81 442.315 20.39C442.728 20.9633 443.368 21.25 444.235 21.25ZM451.222 23V12.74H452.732C453.052 12.74 453.262 12.89 453.362 13.19L453.522 13.95C453.702 13.75 453.889 13.5667 454.082 13.4C454.282 13.2333 454.492 13.09 454.712 12.97C454.939 12.85 455.179 12.7567 455.432 12.69C455.692 12.6167 455.976 12.58 456.282 12.58C456.929 12.58 457.459 12.7567 457.872 13.11C458.292 13.4567 458.606 13.92 458.812 14.5C458.972 14.16 459.172 13.87 459.412 13.63C459.652 13.3833 459.916 13.1833 460.202 13.03C460.489 12.8767 460.792 12.7633 461.112 12.69C461.439 12.6167 461.766 12.58 462.092 12.58C462.659 12.58 463.162 12.6667 463.602 12.84C464.042 13.0133 464.412 13.2667 464.712 13.6C465.012 13.9333 465.239 14.34 465.392 14.82C465.552 15.3 465.632 15.85 465.632 16.47V23H463.162V16.47C463.162 15.8167 463.019 15.3267 462.732 15C462.446 14.6667 462.026 14.5 461.472 14.5C461.219 14.5 460.982 14.5433 460.762 14.63C460.549 14.7167 460.359 14.8433 460.192 15.01C460.032 15.17 459.906 15.3733 459.812 15.62C459.719 15.8667 459.672 16.15 459.672 16.47V23H457.192V16.47C457.192 15.7833 457.052 15.2833 456.772 14.97C456.499 14.6567 456.092 14.5 455.552 14.5C455.199 14.5 454.866 14.59 454.552 14.77C454.246 14.9433 453.959 15.1833 453.692 15.49V23H451.222ZM468.058 26.35V12.74H469.568C469.728 12.74 469.865 12.7767 469.978 12.85C470.092 12.9233 470.165 13.0367 470.198 13.19L470.398 14.14C470.812 13.6667 471.285 13.2833 471.818 12.99C472.358 12.6967 472.988 12.55 473.708 12.55C474.268 12.55 474.778 12.6667 475.238 12.9C475.705 13.1333 476.105 13.4733 476.438 13.92C476.778 14.36 477.038 14.9067 477.218 15.56C477.405 16.2067 477.498 16.95 477.498 17.79C477.498 18.5567 477.395 19.2667 477.188 19.92C476.982 20.5733 476.685 21.14 476.298 21.62C475.918 22.1 475.455 22.4767 474.908 22.75C474.368 23.0167 473.762 23.15 473.088 23.15C472.508 23.15 472.015 23.0633 471.608 22.89C471.208 22.71 470.848 22.4633 470.528 22.15V26.35H468.058ZM472.858 14.5C472.345 14.5 471.905 14.61 471.538 14.83C471.178 15.0433 470.842 15.3467 470.528 15.74V20.34C470.808 20.6867 471.112 20.93 471.438 21.07C471.772 21.2033 472.128 21.27 472.508 21.27C472.882 21.27 473.218 21.2 473.518 21.06C473.825 20.92 474.082 20.7067 474.288 20.42C474.502 20.1333 474.665 19.7733 474.778 19.34C474.892 18.9 474.948 18.3833 474.948 17.79C474.948 17.19 474.898 16.6833 474.798 16.27C474.705 15.85 474.568 15.51 474.388 15.25C474.208 14.99 473.988 14.8 473.728 14.68C473.475 14.56 473.185 14.5 472.858 14.5ZM487.407 23H486.297C486.064 23 485.88 22.9667 485.747 22.9C485.614 22.8267 485.514 22.6833 485.447 22.47L485.227 21.74C484.967 21.9733 484.71 22.18 484.457 22.36C484.21 22.5333 483.954 22.68 483.687 22.8C483.42 22.92 483.137 23.01 482.837 23.07C482.537 23.13 482.204 23.16 481.837 23.16C481.404 23.16 481.004 23.1033 480.637 22.99C480.27 22.87 479.954 22.6933 479.687 22.46C479.427 22.2267 479.224 21.9367 479.077 21.59C478.93 21.2433 478.857 20.84 478.857 20.38C478.857 19.9933 478.957 19.6133 479.157 19.24C479.364 18.86 479.704 18.52 480.177 18.22C480.65 17.9133 481.28 17.66 482.067 17.46C482.854 17.26 483.83 17.1467 484.997 17.12V16.52C484.997 15.8333 484.85 15.3267 484.557 15C484.27 14.6667 483.85 14.5 483.297 14.5C482.897 14.5 482.564 14.5467 482.297 14.64C482.03 14.7333 481.797 14.84 481.597 14.96C481.404 15.0733 481.224 15.1767 481.057 15.27C480.89 15.3633 480.707 15.41 480.507 15.41C480.34 15.41 480.197 15.3667 480.077 15.28C479.957 15.1933 479.86 15.0867 479.787 14.96L479.337 14.17C480.517 13.09 481.94 12.55 483.607 12.55C484.207 12.55 484.74 12.65 485.207 12.85C485.68 13.0433 486.08 13.3167 486.407 13.67C486.734 14.0167 486.98 14.4333 487.147 14.92C487.32 15.4067 487.407 15.94 487.407 16.52V23ZM482.607 21.46C482.86 21.46 483.094 21.4367 483.307 21.39C483.52 21.3433 483.72 21.2733 483.907 21.18C484.1 21.0867 484.284 20.9733 484.457 20.84C484.637 20.7 484.817 20.5367 484.997 20.35V18.62C484.277 18.6533 483.674 18.7167 483.187 18.81C482.707 18.8967 482.32 19.01 482.027 19.15C481.734 19.29 481.524 19.4533 481.397 19.64C481.277 19.8267 481.217 20.03 481.217 20.25C481.217 20.6833 481.344 20.9933 481.597 21.18C481.857 21.3667 482.194 21.46 482.607 21.46ZM489.836 23V12.74H491.346C491.666 12.74 491.876 12.89 491.976 13.19L492.146 14C492.352 13.7867 492.569 13.5933 492.796 13.42C493.029 13.2467 493.272 13.0967 493.526 12.97C493.786 12.8433 494.062 12.7467 494.356 12.68C494.649 12.6133 494.969 12.58 495.316 12.58C495.876 12.58 496.372 12.6767 496.806 12.87C497.239 13.0567 497.599 13.3233 497.886 13.67C498.179 14.01 498.399 14.42 498.546 14.9C498.699 15.3733 498.776 15.8967 498.776 16.47V23H496.306V16.47C496.306 15.8433 496.159 15.36 495.866 15.02C495.579 14.6733 495.146 14.5 494.566 14.5C494.139 14.5 493.739 14.5967 493.366 14.79C492.992 14.9833 492.639 15.2467 492.306 15.58V23H489.836ZM504.491 25.82C504.418 25.9933 504.321 26.1233 504.201 26.21C504.088 26.3033 503.911 26.35 503.671 26.35H501.831L503.751 22.24L499.601 12.74H501.761C501.961 12.74 502.115 12.7867 502.221 12.88C502.328 12.9733 502.408 13.08 502.461 13.2L504.651 18.52C504.725 18.6933 504.788 18.8733 504.841 19.06C504.895 19.2467 504.941 19.4333 504.981 19.62C505.035 19.4267 505.091 19.24 505.151 19.06C505.218 18.88 505.288 18.6967 505.361 18.51L507.421 13.2C507.475 13.0667 507.561 12.9567 507.681 12.87C507.808 12.7833 507.948 12.74 508.101 12.74H510.081L504.491 25.82ZM518.013 12.74V23H515.543V12.74H518.013ZM518.383 9.75C518.383 9.96333 518.339 10.1633 518.253 10.35C518.166 10.5367 518.049 10.7 517.903 10.84C517.763 10.98 517.596 11.0933 517.403 11.18C517.209 11.26 517.003 11.3 516.783 11.3C516.569 11.3 516.366 11.26 516.173 11.18C515.986 11.0933 515.823 10.98 515.683 10.84C515.543 10.7 515.429 10.5367 515.343 10.35C515.263 10.1633 515.223 9.96333 515.223 9.75C515.223 9.53 515.263 9.32333 515.343 9.13C515.429 8.93667 515.543 8.77 515.683 8.63C515.823 8.49 515.986 8.38 516.173 8.3C516.366 8.21333 516.569 8.17 516.783 8.17C517.003 8.17 517.209 8.21333 517.403 8.3C517.596 8.38 517.763 8.49 517.903 8.63C518.049 8.77 518.166 8.93667 518.253 9.13C518.339 9.32333 518.383 9.53 518.383 9.75ZM520.812 23V12.74H522.322C522.642 12.74 522.852 12.89 522.952 13.19L523.122 14C523.329 13.7867 523.546 13.5933 523.772 13.42C524.006 13.2467 524.249 13.0967 524.502 12.97C524.762 12.8433 525.039 12.7467 525.332 12.68C525.626 12.6133 525.946 12.58 526.292 12.58C526.852 12.58 527.349 12.6767 527.782 12.87C528.216 13.0567 528.576 13.3233 528.862 13.67C529.156 14.01 529.376 14.42 529.522 14.9C529.676 15.3733 529.752 15.8967 529.752 16.47V23H527.282V16.47C527.282 15.8433 527.136 15.36 526.842 15.02C526.556 14.6733 526.122 14.5 525.542 14.5C525.116 14.5 524.716 14.5967 524.342 14.79C523.969 14.9833 523.616 15.2467 523.282 15.58V23H520.812ZM539.417 23.16C538.53 23.16 537.847 22.91 537.367 22.41C536.887 21.9033 536.647 21.2067 536.647 20.32V14.59H535.607C535.473 14.59 535.357 14.5467 535.257 14.46C535.163 14.3733 535.117 14.2433 535.117 14.07V13.09L536.767 12.82L537.287 10.02C537.313 9.88667 537.373 9.78333 537.467 9.71C537.567 9.63667 537.69 9.6 537.837 9.6H539.117V12.83H541.817V14.59H539.117V20.15C539.117 20.47 539.197 20.72 539.357 20.9C539.517 21.08 539.73 21.17 539.997 21.17C540.15 21.17 540.277 21.1533 540.377 21.12C540.483 21.08 540.573 21.04 540.647 21C540.727 20.96 540.797 20.9233 540.857 20.89C540.917 20.85 540.977 20.83 541.037 20.83C541.11 20.83 541.17 20.85 541.217 20.89C541.263 20.9233 541.313 20.9767 541.367 21.05L542.107 22.25C541.747 22.55 541.333 22.7767 540.867 22.93C540.4 23.0833 539.917 23.16 539.417 23.16ZM543.781 23V8.14H546.251V13.85C546.651 13.47 547.091 13.1633 547.571 12.93C548.051 12.6967 548.614 12.58 549.261 12.58C549.821 12.58 550.318 12.6767 550.751 12.87C551.184 13.0567 551.544 13.3233 551.831 13.67C552.124 14.01 552.344 14.42 552.491 14.9C552.644 15.3733 552.721 15.8967 552.721 16.47V23H550.251V16.47C550.251 15.8433 550.104 15.36 549.811 15.02C549.524 14.6733 549.091 14.5 548.511 14.5C548.084 14.5 547.684 14.5967 547.311 14.79C546.938 14.9833 546.584 15.2467 546.251 15.58V23H543.781ZM559.388 12.58C560.035 12.58 560.628 12.6833 561.168 12.89C561.715 13.0967 562.185 13.4 562.578 13.8C562.971 14.1933 563.278 14.68 563.498 15.26C563.718 15.8333 563.828 16.49 563.828 17.23C563.828 17.4167 563.818 17.5733 563.798 17.7C563.785 17.82 563.755 17.9167 563.708 17.99C563.668 18.0567 563.611 18.1067 563.538 18.14C563.465 18.1667 563.371 18.18 563.258 18.18H556.918C556.991 19.2333 557.275 20.0067 557.768 20.5C558.261 20.9933 558.915 21.24 559.728 21.24C560.128 21.24 560.471 21.1933 560.758 21.1C561.051 21.0067 561.305 20.9033 561.518 20.79C561.738 20.6767 561.928 20.5733 562.088 20.48C562.255 20.3867 562.415 20.34 562.568 20.34C562.668 20.34 562.755 20.36 562.828 20.4C562.901 20.44 562.965 20.4967 563.018 20.57L563.738 21.47C563.465 21.79 563.158 22.06 562.818 22.28C562.478 22.4933 562.121 22.6667 561.748 22.8C561.381 22.9267 561.005 23.0167 560.618 23.07C560.238 23.1233 559.868 23.15 559.508 23.15C558.795 23.15 558.131 23.0333 557.518 22.8C556.905 22.56 556.371 22.21 555.918 21.75C555.465 21.2833 555.108 20.71 554.848 20.03C554.588 19.3433 554.458 18.55 554.458 17.65C554.458 16.95 554.571 16.2933 554.798 15.68C555.025 15.06 555.348 14.5233 555.768 14.07C556.195 13.61 556.711 13.2467 557.318 12.98C557.931 12.7133 558.621 12.58 559.388 12.58ZM559.438 14.35C558.718 14.35 558.155 14.5533 557.748 14.96C557.341 15.3667 557.081 15.9433 556.968 16.69H561.608C561.608 16.37 561.565 16.07 561.478 15.79C561.391 15.5033 561.258 15.2533 561.078 15.04C560.898 14.8267 560.671 14.66 560.398 14.54C560.125 14.4133 559.805 14.35 559.438 14.35ZM570.139 23V14.6L569.249 14.46C569.056 14.4267 568.899 14.36 568.779 14.26C568.666 14.16 568.609 14.02 568.609 13.84V12.83H570.139V12.07C570.139 11.4833 570.226 10.9567 570.399 10.49C570.579 10.0233 570.832 9.62667 571.159 9.3C571.492 8.97333 571.896 8.72333 572.369 8.55C572.842 8.37667 573.376 8.29 573.969 8.29C574.442 8.29 574.882 8.35333 575.289 8.48L575.239 9.72C575.226 9.91333 575.136 10.0333 574.969 10.08C574.802 10.1267 574.609 10.15 574.389 10.15C574.096 10.15 573.832 10.1833 573.599 10.25C573.372 10.31 573.179 10.42 573.019 10.58C572.859 10.7333 572.736 10.94 572.649 11.2C572.569 11.4533 572.529 11.77 572.529 12.15V12.83H575.199V14.59H572.609V23H570.139ZM584.751 23H583.641C583.407 23 583.224 22.9667 583.091 22.9C582.957 22.8267 582.857 22.6833 582.791 22.47L582.571 21.74C582.311 21.9733 582.054 22.18 581.801 22.36C581.554 22.5333 581.297 22.68 581.031 22.8C580.764 22.92 580.481 23.01 580.181 23.07C579.881 23.13 579.547 23.16 579.181 23.16C578.747 23.16 578.347 23.1033 577.981 22.99C577.614 22.87 577.297 22.6933 577.031 22.46C576.771 22.2267 576.567 21.9367 576.421 21.59C576.274 21.2433 576.201 20.84 576.201 20.38C576.201 19.9933 576.301 19.6133 576.501 19.24C576.707 18.86 577.047 18.52 577.521 18.22C577.994 17.9133 578.624 17.66 579.411 17.46C580.197 17.26 581.174 17.1467 582.341 17.12V16.52C582.341 15.8333 582.194 15.3267 581.901 15C581.614 14.6667 581.194 14.5 580.641 14.5C580.241 14.5 579.907 14.5467 579.641 14.64C579.374 14.7333 579.141 14.84 578.941 14.96C578.747 15.0733 578.567 15.1767 578.401 15.27C578.234 15.3633 578.051 15.41 577.851 15.41C577.684 15.41 577.541 15.3667 577.421 15.28C577.301 15.1933 577.204 15.0867 577.131 14.96L576.681 14.17C577.861 13.09 579.284 12.55 580.951 12.55C581.551 12.55 582.084 12.65 582.551 12.85C583.024 13.0433 583.424 13.3167 583.751 13.67C584.077 14.0167 584.324 14.4333 584.491 14.92C584.664 15.4067 584.751 15.94 584.751 16.52V23ZM579.951 21.46C580.204 21.46 580.437 21.4367 580.651 21.39C580.864 21.3433 581.064 21.2733 581.251 21.18C581.444 21.0867 581.627 20.9733 581.801 20.84C581.981 20.7 582.161 20.5367 582.341 20.35V18.62C581.621 18.6533 581.017 18.7167 580.531 18.81C580.051 18.8967 579.664 19.01 579.371 19.15C579.077 19.29 578.867 19.4533 578.741 19.64C578.621 19.8267 578.561 20.03 578.561 20.25C578.561 20.6833 578.687 20.9933 578.941 21.18C579.201 21.3667 579.537 21.46 579.951 21.46ZM594.389 14.91C594.316 15.0033 594.243 15.0767 594.169 15.13C594.103 15.1833 594.003 15.21 593.869 15.21C593.743 15.21 593.619 15.1733 593.499 15.1C593.379 15.02 593.236 14.9333 593.069 14.84C592.903 14.74 592.703 14.6533 592.469 14.58C592.243 14.5 591.959 14.46 591.619 14.46C591.186 14.46 590.806 14.54 590.479 14.7C590.153 14.8533 589.879 15.0767 589.659 15.37C589.446 15.6633 589.286 16.02 589.179 16.44C589.073 16.8533 589.019 17.3233 589.019 17.85C589.019 18.3967 589.076 18.8833 589.189 19.31C589.309 19.7367 589.479 20.0967 589.699 20.39C589.919 20.6767 590.186 20.8967 590.499 21.05C590.813 21.1967 591.166 21.27 591.559 21.27C591.953 21.27 592.269 21.2233 592.509 21.13C592.756 21.03 592.963 20.9233 593.129 20.81C593.296 20.69 593.439 20.5833 593.559 20.49C593.686 20.39 593.826 20.34 593.979 20.34C594.179 20.34 594.329 20.4167 594.429 20.57L595.139 21.47C594.866 21.79 594.569 22.06 594.249 22.28C593.929 22.4933 593.596 22.6667 593.249 22.8C592.909 22.9267 592.556 23.0167 592.189 23.07C591.823 23.1233 591.459 23.15 591.099 23.15C590.466 23.15 589.869 23.0333 589.309 22.8C588.749 22.56 588.259 22.2133 587.839 21.76C587.426 21.3067 587.096 20.7533 586.849 20.1C586.609 19.44 586.489 18.69 586.489 17.85C586.489 17.0967 586.596 16.4 586.809 15.76C587.029 15.1133 587.349 14.5567 587.769 14.09C588.189 13.6167 588.709 13.2467 589.329 12.98C589.949 12.7133 590.663 12.58 591.469 12.58C592.236 12.58 592.906 12.7033 593.479 12.95C594.059 13.1967 594.579 13.55 595.039 14.01L594.389 14.91ZM600.951 12.58C601.597 12.58 602.191 12.6833 602.731 12.89C603.277 13.0967 603.747 13.4 604.141 13.8C604.534 14.1933 604.841 14.68 605.061 15.26C605.281 15.8333 605.391 16.49 605.391 17.23C605.391 17.4167 605.381 17.5733 605.361 17.7C605.347 17.82 605.317 17.9167 605.271 17.99C605.231 18.0567 605.174 18.1067 605.101 18.14C605.027 18.1667 604.934 18.18 604.821 18.18H598.481C598.554 19.2333 598.837 20.0067 599.331 20.5C599.824 20.9933 600.477 21.24 601.291 21.24C601.691 21.24 602.034 21.1933 602.321 21.1C602.614 21.0067 602.867 20.9033 603.081 20.79C603.301 20.6767 603.491 20.5733 603.651 20.48C603.817 20.3867 603.977 20.34 604.131 20.34C604.231 20.34 604.317 20.36 604.391 20.4C604.464 20.44 604.527 20.4967 604.581 20.57L605.301 21.47C605.027 21.79 604.721 22.06 604.381 22.28C604.041 22.4933 603.684 22.6667 603.311 22.8C602.944 22.9267 602.567 23.0167 602.181 23.07C601.801 23.1233 601.431 23.15 601.071 23.15C600.357 23.15 599.694 23.0333 599.081 22.8C598.467 22.56 597.934 22.21 597.481 21.75C597.027 21.2833 596.671 20.71 596.411 20.03C596.151 19.3433 596.021 18.55 596.021 17.65C596.021 16.95 596.134 16.2933 596.361 15.68C596.587 15.06 596.911 14.5233 597.331 14.07C597.757 13.61 598.274 13.2467 598.881 12.98C599.494 12.7133 600.184 12.58 600.951 12.58ZM601.001 14.35C600.281 14.35 599.717 14.5533 599.311 14.96C598.904 15.3667 598.644 15.9433 598.531 16.69H603.171C603.171 16.37 603.127 16.07 603.041 15.79C602.954 15.5033 602.821 15.2533 602.641 15.04C602.461 14.8267 602.234 14.66 601.961 14.54C601.687 14.4133 601.367 14.35 601.001 14.35ZM615.641 12.58C616.408 12.58 617.101 12.7033 617.721 12.95C618.348 13.1967 618.881 13.5467 619.321 14C619.761 14.4533 620.101 15.0067 620.341 15.66C620.581 16.3133 620.701 17.0433 620.701 17.85C620.701 18.6633 620.581 19.3967 620.341 20.05C620.101 20.7033 619.761 21.26 619.321 21.72C618.881 22.18 618.348 22.5333 617.721 22.78C617.101 23.0267 616.408 23.15 615.641 23.15C614.875 23.15 614.178 23.0267 613.551 22.78C612.925 22.5333 612.388 22.18 611.941 21.72C611.501 21.26 611.158 20.7033 610.911 20.05C610.671 19.3967 610.551 18.6633 610.551 17.85C610.551 17.0433 610.671 16.3133 610.911 15.66C611.158 15.0067 611.501 14.4533 611.941 14C612.388 13.5467 612.925 13.1967 613.551 12.95C614.178 12.7033 614.875 12.58 615.641 12.58ZM615.641 21.25C616.495 21.25 617.125 20.9633 617.531 20.39C617.945 19.8167 618.151 18.9767 618.151 17.87C618.151 16.7633 617.945 15.92 617.531 15.34C617.125 14.76 616.495 14.47 615.641 14.47C614.775 14.47 614.135 14.7633 613.721 15.35C613.308 15.93 613.101 16.77 613.101 17.87C613.101 18.97 613.308 19.81 613.721 20.39C614.135 20.9633 614.775 21.25 615.641 21.25ZM623.069 23V14.6L622.179 14.46C621.985 14.4267 621.829 14.36 621.709 14.26C621.595 14.16 621.539 14.02 621.539 13.84V12.83H623.069V12.07C623.069 11.4833 623.155 10.9567 623.329 10.49C623.509 10.0233 623.762 9.62667 624.089 9.3C624.422 8.97333 624.825 8.72333 625.299 8.55C625.772 8.37667 626.305 8.29 626.899 8.29C627.372 8.29 627.812 8.35333 628.219 8.48L628.169 9.72C628.155 9.91333 628.065 10.0333 627.899 10.08C627.732 10.1267 627.539 10.15 627.319 10.15C627.025 10.15 626.762 10.1833 626.529 10.25C626.302 10.31 626.109 10.42 625.949 10.58C625.789 10.7333 625.665 10.94 625.579 11.2C625.499 11.4533 625.459 11.77 625.459 12.15V12.83H628.129V14.59H625.539V23H623.069ZM635.768 12.74V19.26C635.768 19.8867 635.911 20.3733 636.198 20.72C636.491 21.06 636.928 21.23 637.508 21.23C637.934 21.23 638.334 21.1367 638.708 20.95C639.081 20.7567 639.434 20.4933 639.768 20.16V12.74H642.237V23H640.728C640.408 23 640.198 22.85 640.098 22.55L639.928 21.73C639.714 21.9433 639.494 22.14 639.268 22.32C639.041 22.4933 638.798 22.6433 638.538 22.77C638.284 22.89 638.008 22.9833 637.708 23.05C637.414 23.1233 637.098 23.16 636.758 23.16C636.198 23.16 635.701 23.0667 635.268 22.88C634.841 22.6867 634.481 22.4167 634.188 22.07C633.894 21.7233 633.671 21.3133 633.518 20.84C633.371 20.36 633.298 19.8333 633.298 19.26V12.74H635.768ZM644.875 23V12.74H646.385C646.705 12.74 646.915 12.89 647.015 13.19L647.185 14C647.391 13.7867 647.608 13.5933 647.835 13.42C648.068 13.2467 648.311 13.0967 648.565 12.97C648.825 12.8433 649.101 12.7467 649.395 12.68C649.688 12.6133 650.008 12.58 650.355 12.58C650.915 12.58 651.411 12.6767 651.845 12.87C652.278 13.0567 652.638 13.3233 652.925 13.67C653.218 14.01 653.438 14.42 653.585 14.9C653.738 15.3733 653.815 15.8967 653.815 16.47V23H651.345V16.47C651.345 15.8433 651.198 15.36 650.905 15.02C650.618 14.6733 650.185 14.5 649.605 14.5C649.178 14.5 648.778 14.5967 648.405 14.79C648.031 14.9833 647.678 15.2467 647.345 15.58V23H644.875ZM663.452 14.91C663.379 15.0033 663.305 15.0767 663.232 15.13C663.165 15.1833 663.065 15.21 662.932 15.21C662.805 15.21 662.682 15.1733 662.562 15.1C662.442 15.02 662.299 14.9333 662.132 14.84C661.965 14.74 661.765 14.6533 661.532 14.58C661.305 14.5 661.022 14.46 660.682 14.46C660.249 14.46 659.869 14.54 659.542 14.7C659.215 14.8533 658.942 15.0767 658.722 15.37C658.509 15.6633 658.349 16.02 658.242 16.44C658.135 16.8533 658.082 17.3233 658.082 17.85C658.082 18.3967 658.139 18.8833 658.252 19.31C658.372 19.7367 658.542 20.0967 658.762 20.39C658.982 20.6767 659.249 20.8967 659.562 21.05C659.875 21.1967 660.229 21.27 660.622 21.27C661.015 21.27 661.332 21.2233 661.572 21.13C661.819 21.03 662.025 20.9233 662.192 20.81C662.359 20.69 662.502 20.5833 662.622 20.49C662.749 20.39 662.889 20.34 663.042 20.34C663.242 20.34 663.392 20.4167 663.492 20.57L664.202 21.47C663.929 21.79 663.632 22.06 663.312 22.28C662.992 22.4933 662.659 22.6667 662.312 22.8C661.972 22.9267 661.619 23.0167 661.252 23.07C660.885 23.1233 660.522 23.15 660.162 23.15C659.529 23.15 658.932 23.0333 658.372 22.8C657.812 22.56 657.322 22.2133 656.902 21.76C656.489 21.3067 656.159 20.7533 655.912 20.1C655.672 19.44 655.552 18.69 655.552 17.85C655.552 17.0967 655.659 16.4 655.872 15.76C656.092 15.1133 656.412 14.5567 656.832 14.09C657.252 13.6167 657.772 13.2467 658.392 12.98C659.012 12.7133 659.725 12.58 660.532 12.58C661.299 12.58 661.969 12.7033 662.542 12.95C663.122 13.1967 663.642 13.55 664.102 14.01L663.452 14.91ZM670.013 12.58C670.66 12.58 671.253 12.6833 671.793 12.89C672.34 13.0967 672.81 13.4 673.203 13.8C673.596 14.1933 673.903 14.68 674.123 15.26C674.343 15.8333 674.453 16.49 674.453 17.23C674.453 17.4167 674.443 17.5733 674.423 17.7C674.41 17.82 674.38 17.9167 674.333 17.99C674.293 18.0567 674.236 18.1067 674.163 18.14C674.09 18.1667 673.996 18.18 673.883 18.18H667.543C667.616 19.2333 667.9 20.0067 668.393 20.5C668.886 20.9933 669.54 21.24 670.353 21.24C670.753 21.24 671.096 21.1933 671.383 21.1C671.676 21.0067 671.93 20.9033 672.143 20.79C672.363 20.6767 672.553 20.5733 672.713 20.48C672.88 20.3867 673.04 20.34 673.193 20.34C673.293 20.34 673.38 20.36 673.453 20.4C673.526 20.44 673.59 20.4967 673.643 20.57L674.363 21.47C674.09 21.79 673.783 22.06 673.443 22.28C673.103 22.4933 672.746 22.6667 672.373 22.8C672.006 22.9267 671.63 23.0167 671.243 23.07C670.863 23.1233 670.493 23.15 670.133 23.15C669.42 23.15 668.756 23.0333 668.143 22.8C667.53 22.56 666.996 22.21 666.543 21.75C666.09 21.2833 665.733 20.71 665.473 20.03C665.213 19.3433 665.083 18.55 665.083 17.65C665.083 16.95 665.196 16.2933 665.423 15.68C665.65 15.06 665.973 14.5233 666.393 14.07C666.82 13.61 667.336 13.2467 667.943 12.98C668.556 12.7133 669.246 12.58 670.013 12.58ZM670.063 14.35C669.343 14.35 668.78 14.5533 668.373 14.96C667.966 15.3667 667.706 15.9433 667.593 16.69H672.233C672.233 16.37 672.19 16.07 672.103 15.79C672.016 15.5033 671.883 15.2533 671.703 15.04C671.523 14.8267 671.296 14.66 671.023 14.54C670.75 14.4133 670.43 14.35 670.063 14.35ZM676.457 23V12.74H677.907C678.16 12.74 678.337 12.7867 678.437 12.88C678.537 12.9733 678.603 13.1333 678.637 13.36L678.787 14.6C679.153 13.9667 679.583 13.4667 680.077 13.1C680.57 12.7333 681.123 12.55 681.737 12.55C682.243 12.55 682.663 12.6667 682.997 12.9L682.677 14.75C682.657 14.87 682.613 14.9567 682.547 15.01C682.48 15.0567 682.39 15.08 682.277 15.08C682.177 15.08 682.04 15.0567 681.867 15.01C681.693 14.9633 681.463 14.94 681.177 14.94C680.663 14.94 680.223 15.0833 679.857 15.37C679.49 15.65 679.18 16.0633 678.927 16.61V23H676.457ZM687.991 23.16C687.104 23.16 686.421 22.91 685.941 22.41C685.461 21.9033 685.221 21.2067 685.221 20.32V14.59H684.181C684.047 14.59 683.931 14.5467 683.831 14.46C683.737 14.3733 683.691 14.2433 683.691 14.07V13.09L685.341 12.82L685.861 10.02C685.887 9.88667 685.947 9.78333 686.041 9.71C686.141 9.63667 686.264 9.6 686.411 9.6H687.691V12.83H690.391V14.59H687.691V20.15C687.691 20.47 687.771 20.72 687.931 20.9C688.091 21.08 688.304 21.17 688.571 21.17C688.724 21.17 688.851 21.1533 688.951 21.12C689.057 21.08 689.147 21.04 689.221 21C689.301 20.96 689.371 20.9233 689.431 20.89C689.491 20.85 689.551 20.83 689.611 20.83C689.684 20.83 689.744 20.85 689.791 20.89C689.837 20.9233 689.887 20.9767 689.941 21.05L690.681 22.25C690.321 22.55 689.907 22.7767 689.441 22.93C688.974 23.0833 688.491 23.16 687.991 23.16ZM700.395 23H699.285C699.052 23 698.868 22.9667 698.735 22.9C698.602 22.8267 698.502 22.6833 698.435 22.47L698.215 21.74C697.955 21.9733 697.698 22.18 697.445 22.36C697.198 22.5333 696.942 22.68 696.675 22.8C696.408 22.92 696.125 23.01 695.825 23.07C695.525 23.13 695.192 23.16 694.825 23.16C694.392 23.16 693.992 23.1033 693.625 22.99C693.258 22.87 692.942 22.6933 692.675 22.46C692.415 22.2267 692.212 21.9367 692.065 21.59C691.918 21.2433 691.845 20.84 691.845 20.38C691.845 19.9933 691.945 19.6133 692.145 19.24C692.352 18.86 692.692 18.52 693.165 18.22C693.638 17.9133 694.268 17.66 695.055 17.46C695.842 17.26 696.818 17.1467 697.985 17.12V16.52C697.985 15.8333 697.838 15.3267 697.545 15C697.258 14.6667 696.838 14.5 696.285 14.5C695.885 14.5 695.552 14.5467 695.285 14.64C695.018 14.7333 694.785 14.84 694.585 14.96C694.392 15.0733 694.212 15.1767 694.045 15.27C693.878 15.3633 693.695 15.41 693.495 15.41C693.328 15.41 693.185 15.3667 693.065 15.28C692.945 15.1933 692.848 15.0867 692.775 14.96L692.325 14.17C693.505 13.09 694.928 12.55 696.595 12.55C697.195 12.55 697.728 12.65 698.195 12.85C698.668 13.0433 699.068 13.3167 699.395 13.67C699.722 14.0167 699.968 14.4333 700.135 14.92C700.308 15.4067 700.395 15.94 700.395 16.52V23ZM695.595 21.46C695.848 21.46 696.082 21.4367 696.295 21.39C696.508 21.3433 696.708 21.2733 696.895 21.18C697.088 21.0867 697.272 20.9733 697.445 20.84C697.625 20.7 697.805 20.5367 697.985 20.35V18.62C697.265 18.6533 696.662 18.7167 696.175 18.81C695.695 18.8967 695.308 19.01 695.015 19.15C694.722 19.29 694.512 19.4533 694.385 19.64C694.265 19.8267 694.205 20.03 694.205 20.25C694.205 20.6833 694.332 20.9933 694.585 21.18C694.845 21.3667 695.182 21.46 695.595 21.46ZM705.454 12.74V23H702.984V12.74H705.454ZM705.824 9.75C705.824 9.96333 705.781 10.1633 705.694 10.35C705.607 10.5367 705.491 10.7 705.344 10.84C705.204 10.98 705.037 11.0933 704.844 11.18C704.651 11.26 704.444 11.3 704.224 11.3C704.011 11.3 703.807 11.26 703.614 11.18C703.427 11.0933 703.264 10.98 703.124 10.84C702.984 10.7 702.871 10.5367 702.784 10.35C702.704 10.1633 702.664 9.96333 702.664 9.75C702.664 9.53 702.704 9.32333 702.784 9.13C702.871 8.93667 702.984 8.77 703.124 8.63C703.264 8.49 703.427 8.38 703.614 8.3C703.807 8.21333 704.011 8.17 704.224 8.17C704.444 8.17 704.651 8.21333 704.844 8.3C705.037 8.38 705.204 8.49 705.344 8.63C705.491 8.77 705.607 8.93667 705.694 9.13C705.781 9.32333 705.824 9.53 705.824 9.75ZM708.254 23V12.74H709.764C710.084 12.74 710.294 12.89 710.394 13.19L710.564 14C710.77 13.7867 710.987 13.5933 711.214 13.42C711.447 13.2467 711.69 13.0967 711.944 12.97C712.204 12.8433 712.48 12.7467 712.774 12.68C713.067 12.6133 713.387 12.58 713.734 12.58C714.294 12.58 714.79 12.6767 715.224 12.87C715.657 13.0567 716.017 13.3233 716.304 13.67C716.597 14.01 716.817 14.42 716.964 14.9C717.117 15.3733 717.194 15.8967 717.194 16.47V23H714.724V16.47C714.724 15.8433 714.577 15.36 714.284 15.02C713.997 14.6733 713.564 14.5 712.984 14.5C712.557 14.5 712.157 14.5967 711.784 14.79C711.41 14.9833 711.057 15.2467 710.724 15.58V23H708.254ZM722.991 23.16C722.104 23.16 721.421 22.91 720.941 22.41C720.461 21.9033 720.221 21.2067 720.221 20.32V14.59H719.181C719.047 14.59 718.931 14.5467 718.831 14.46C718.737 14.3733 718.691 14.2433 718.691 14.07V13.09L720.341 12.82L720.861 10.02C720.887 9.88667 720.947 9.78333 721.041 9.71C721.141 9.63667 721.264 9.6 721.411 9.6H722.691V12.83H725.391V14.59H722.691V20.15C722.691 20.47 722.771 20.72 722.931 20.9C723.091 21.08 723.304 21.17 723.571 21.17C723.724 21.17 723.851 21.1533 723.951 21.12C724.057 21.08 724.147 21.04 724.221 21C724.301 20.96 724.371 20.9233 724.431 20.89C724.491 20.85 724.551 20.83 724.611 20.83C724.684 20.83 724.744 20.85 724.791 20.89C724.837 20.9233 724.887 20.9767 724.941 21.05L725.681 22.25C725.321 22.55 724.907 22.7767 724.441 22.93C723.974 23.0833 723.491 23.16 722.991 23.16ZM730.995 25.82C730.922 25.9933 730.825 26.1233 730.705 26.21C730.592 26.3033 730.415 26.35 730.175 26.35H728.335L730.255 22.24L726.105 12.74H728.265C728.465 12.74 728.618 12.7867 728.725 12.88C728.832 12.9733 728.912 13.08 728.965 13.2L731.155 18.52C731.228 18.6933 731.292 18.8733 731.345 19.06C731.398 19.2467 731.445 19.4333 731.485 19.62C731.538 19.4267 731.595 19.24 731.655 19.06C731.722 18.88 731.792 18.6967 731.865 18.51L733.925 13.2C733.978 13.0667 734.065 12.9567 734.185 12.87C734.312 12.7833 734.452 12.74 734.605 12.74H736.585L730.995 25.82ZM736.062 21.64C736.062 21.4333 736.099 21.2367 736.172 21.05C736.252 20.8633 736.359 20.7033 736.492 20.57C736.632 20.4367 736.795 20.33 736.982 20.25C737.169 20.17 737.369 20.13 737.582 20.13C737.789 20.13 737.985 20.17 738.172 20.25C738.359 20.33 738.519 20.4367 738.652 20.57C738.785 20.7033 738.892 20.8633 738.972 21.05C739.052 21.2367 739.092 21.4333 739.092 21.64C739.092 21.8533 739.052 22.0533 738.972 22.24C738.892 22.42 738.785 22.5767 738.652 22.71C738.519 22.8433 738.359 22.9467 738.172 23.02C737.985 23.1 737.789 23.14 737.582 23.14C737.369 23.14 737.169 23.1 736.982 23.02C736.795 22.9467 736.632 22.8433 736.492 22.71C736.359 22.5767 736.252 22.42 736.172 22.24C736.099 22.0533 736.062 21.8533 736.062 21.64Z" fill="#1E212C"/>
<path d="M12.04 47.272C12.04 48.1307 11.904 48.92 11.632 49.64C11.36 50.3547 10.976 50.9707 10.48 51.488C9.984 52.0053 9.38667 52.408 8.688 52.696C7.99467 52.9787 7.22667 53.12 6.384 53.12C5.54133 53.12 4.77333 52.9787 4.08 52.696C3.38667 52.408 2.792 52.0053 2.296 51.488C1.8 50.9707 1.416 50.3547 1.144 49.64C0.872 48.92 0.736 48.1307 0.736 47.272C0.736 46.4133 0.872 45.6267 1.144 44.912C1.416 44.192 1.8 43.5733 2.296 43.056C2.792 42.5333 3.38667 42.128 4.08 41.84C4.77333 41.552 5.54133 41.408 6.384 41.408C7.22667 41.408 7.99467 41.552 8.688 41.84C9.38667 42.128 9.984 42.5333 10.48 43.056C10.976 43.5733 11.36 44.192 11.632 44.912C11.904 45.6267 12.04 46.4133 12.04 47.272ZM10.448 47.272C10.448 46.568 10.352 45.936 10.16 45.376C9.968 44.816 9.696 44.344 9.344 43.96C8.992 43.5707 8.56533 43.272 8.064 43.064C7.56267 42.856 7.00267 42.752 6.384 42.752C5.77067 42.752 5.21333 42.856 4.712 43.064C4.21067 43.272 3.78133 43.5707 3.424 43.96C3.072 44.344 2.8 44.816 2.608 45.376C2.416 45.936 2.32 46.568 2.32 47.272C2.32 47.976 2.416 48.608 2.608 49.168C2.8 49.7227 3.072 50.1947 3.424 50.584C3.78133 50.968 4.21067 51.264 4.712 51.472C5.21333 51.6747 5.77067 51.776 6.384 51.776C7.00267 51.776 7.56267 51.6747 8.064 51.472C8.56533 51.264 8.992 50.968 9.344 50.584C9.696 50.1947 9.968 49.7227 10.16 49.168C10.352 48.608 10.448 47.976 10.448 47.272ZM13.9336 53V44.896H14.7816C14.9843 44.896 15.1123 44.9947 15.1656 45.192L15.2776 46.072C15.6296 45.6827 16.0216 45.368 16.4536 45.128C16.891 44.888 17.395 44.768 17.9656 44.768C18.4083 44.768 18.7976 44.8427 19.1336 44.992C19.475 45.136 19.7576 45.344 19.9816 45.616C20.211 45.8827 20.3843 46.2053 20.5016 46.584C20.619 46.9627 20.6776 47.3813 20.6776 47.84V53H19.2536V47.84C19.2536 47.2267 19.1123 46.752 18.8296 46.416C18.5523 46.0747 18.1256 45.904 17.5496 45.904C17.1283 45.904 16.7336 46.0053 16.3656 46.208C16.003 46.4107 15.667 46.6853 15.3576 47.032V53H13.9336ZM24.4083 44.896V53H22.9843V44.896H24.4083ZM24.7283 42.352C24.7283 42.4907 24.6989 42.6213 24.6403 42.744C24.5869 42.8613 24.5123 42.968 24.4163 43.064C24.3256 43.1547 24.2189 43.2267 24.0963 43.28C23.9736 43.3333 23.8429 43.36 23.7043 43.36C23.5656 43.36 23.4349 43.3333 23.3123 43.28C23.1949 43.2267 23.0883 43.1547 22.9923 43.064C22.9016 42.968 22.8296 42.8613 22.7763 42.744C22.7229 42.6213 22.6963 42.4907 22.6963 42.352C22.6963 42.2133 22.7229 42.0827 22.7763 41.96C22.8296 41.832 22.9016 41.7227 22.9923 41.632C23.0883 41.536 23.1949 41.4613 23.3123 41.408C23.4349 41.3547 23.5656 41.328 23.7043 41.328C23.8429 41.328 23.9736 41.3547 24.0963 41.408C24.2189 41.4613 24.3256 41.536 24.4163 41.632C24.5123 41.7227 24.5869 41.832 24.6403 41.96C24.6989 42.0827 24.7283 42.2133 24.7283 42.352ZM26.918 53V44.896H27.766C27.9687 44.896 28.0967 44.9947 28.15 45.192L28.262 46.072C28.614 45.6827 29.006 45.368 29.438 45.128C29.8753 44.888 30.3793 44.768 30.95 44.768C31.3927 44.768 31.782 44.8427 32.118 44.992C32.4593 45.136 32.742 45.344 32.966 45.616C33.1953 45.8827 33.3687 46.2053 33.486 46.584C33.6033 46.9627 33.662 47.3813 33.662 47.84V53H32.238V47.84C32.238 47.2267 32.0967 46.752 31.814 46.416C31.5367 46.0747 31.11 45.904 30.534 45.904C30.1127 45.904 29.718 46.0053 29.35 46.208C28.9873 46.4107 28.6513 46.6853 28.342 47.032V53H26.918ZM39.0166 44.768C39.502 44.768 39.95 44.8507 40.3606 45.016C40.7713 45.176 41.126 45.4107 41.4246 45.72C41.7233 46.024 41.9553 46.4027 42.1206 46.856C42.2913 47.304 42.3766 47.816 42.3766 48.392C42.3766 48.616 42.3526 48.7653 42.3046 48.84C42.2566 48.9147 42.166 48.952 42.0326 48.952H36.6406C36.6513 49.464 36.7206 49.9093 36.8486 50.288C36.9766 50.6667 37.1526 50.984 37.3766 51.24C37.6006 51.4907 37.8673 51.68 38.1766 51.808C38.486 51.9307 38.8326 51.992 39.2166 51.992C39.574 51.992 39.8806 51.952 40.1366 51.872C40.398 51.7867 40.622 51.696 40.8086 51.6C40.9953 51.504 41.15 51.416 41.2726 51.336C41.4006 51.2507 41.51 51.208 41.6006 51.208C41.718 51.208 41.8086 51.2533 41.8726 51.344L42.2726 51.864C42.0966 52.0773 41.886 52.264 41.6406 52.424C41.3953 52.5787 41.1313 52.7067 40.8486 52.808C40.5713 52.9093 40.2833 52.984 39.9846 53.032C39.686 53.0853 39.39 53.112 39.0966 53.112C38.5366 53.112 38.0193 53.0187 37.5446 52.832C37.0753 52.64 36.6673 52.3627 36.3206 52C35.9793 51.632 35.7126 51.1787 35.5206 50.64C35.3286 50.1013 35.2326 49.4827 35.2326 48.784C35.2326 48.2187 35.318 47.6907 35.4886 47.2C35.6646 46.7093 35.9153 46.2853 36.2406 45.928C36.566 45.5653 36.9633 45.2827 37.4326 45.08C37.902 44.872 38.43 44.768 39.0166 44.768ZM39.0486 45.816C38.3606 45.816 37.8193 46.016 37.4246 46.416C37.03 46.8107 36.7846 47.36 36.6886 48.064H41.0966C41.0966 47.7333 41.0513 47.432 40.9606 47.16C40.87 46.8827 40.7366 46.6453 40.5606 46.448C40.3846 46.2453 40.1686 46.0907 39.9126 45.984C39.662 45.872 39.374 45.816 39.0486 45.816ZM47.293 53V44.896H48.141C48.3437 44.896 48.4717 44.9947 48.525 45.192L48.629 46.024C48.9277 45.656 49.261 45.3547 49.629 45.12C50.0023 44.8853 50.4343 44.768 50.925 44.768C51.4743 44.768 51.917 44.92 52.253 45.224C52.5943 45.528 52.8397 45.9387 52.989 46.456C53.101 46.1627 53.2477 45.9093 53.429 45.696C53.6157 45.4827 53.8237 45.3067 54.053 45.168C54.2823 45.0293 54.525 44.928 54.781 44.864C55.0423 44.8 55.3063 44.768 55.573 44.768C55.9997 44.768 56.3783 44.8373 56.709 44.976C57.045 45.1093 57.3277 45.3067 57.557 45.568C57.7917 45.8293 57.9703 46.152 58.093 46.536C58.2157 46.9147 58.277 47.3493 58.277 47.84V53H56.853V47.84C56.853 47.2053 56.7143 46.7253 56.437 46.4C56.1597 46.0693 55.757 45.904 55.229 45.904C54.9943 45.904 54.7703 45.9467 54.557 46.032C54.349 46.112 54.165 46.232 54.005 46.392C53.845 46.552 53.717 46.7547 53.621 47C53.5303 47.24 53.485 47.52 53.485 47.84V53H52.061V47.84C52.061 47.1893 51.9303 46.704 51.669 46.384C51.4077 46.064 51.0263 45.904 50.525 45.904C50.173 45.904 49.845 46 49.541 46.192C49.2423 46.3787 48.9677 46.6347 48.717 46.96V53H47.293ZM66.3856 53H65.7536C65.615 53 65.503 52.9787 65.4176 52.936C65.3323 52.8933 65.2763 52.8027 65.2496 52.664L65.0896 51.912C64.8763 52.104 64.6683 52.2773 64.4656 52.432C64.263 52.5813 64.0496 52.7093 63.8256 52.816C63.6016 52.9173 63.3616 52.9947 63.1056 53.048C62.855 53.1013 62.575 53.128 62.2656 53.128C61.951 53.128 61.655 53.0853 61.3776 53C61.1056 52.9093 60.8683 52.776 60.6656 52.6C60.463 52.424 60.3003 52.2027 60.1776 51.936C60.0603 51.664 60.0016 51.344 60.0016 50.976C60.0016 50.656 60.0896 50.3493 60.2656 50.056C60.4416 49.7573 60.7243 49.4933 61.1136 49.264C61.5083 49.0347 62.023 48.848 62.6576 48.704C63.2923 48.5547 64.0683 48.4693 64.9856 48.448V47.816C64.9856 47.1867 64.8496 46.712 64.5776 46.392C64.311 46.0667 63.9136 45.904 63.3856 45.904C63.039 45.904 62.7456 45.9493 62.5056 46.04C62.271 46.1253 62.0656 46.224 61.8896 46.336C61.719 46.4427 61.5696 46.5413 61.4416 46.632C61.319 46.7173 61.1963 46.76 61.0736 46.76C60.9776 46.76 60.8923 46.736 60.8176 46.688C60.7483 46.6347 60.6923 46.5707 60.6496 46.496L60.3936 46.04C60.8416 45.608 61.3243 45.2853 61.8416 45.072C62.359 44.8587 62.9323 44.752 63.5616 44.752C64.015 44.752 64.4176 44.8267 64.7696 44.976C65.1216 45.1253 65.4176 45.3333 65.6576 45.6C65.8976 45.8667 66.079 46.1893 66.2016 46.568C66.3243 46.9467 66.3856 47.3627 66.3856 47.816V53ZM62.6896 52.128C62.9403 52.128 63.1696 52.104 63.3776 52.056C63.5856 52.0027 63.7803 51.9307 63.9616 51.84C64.1483 51.744 64.3243 51.6293 64.4896 51.496C64.6603 51.3627 64.8256 51.2107 64.9856 51.04V49.352C64.3296 49.3733 63.7723 49.4267 63.3136 49.512C62.855 49.592 62.4816 49.6987 62.1936 49.832C61.9056 49.9653 61.695 50.1227 61.5616 50.304C61.4336 50.4853 61.3696 50.688 61.3696 50.912C61.3696 51.1253 61.4043 51.3093 61.4736 51.464C61.543 51.6187 61.6363 51.7467 61.7536 51.848C61.871 51.944 62.0096 52.016 62.1696 52.064C62.3296 52.1067 62.503 52.128 62.6896 52.128ZM73.183 46.232C73.119 46.3493 73.0203 46.408 72.887 46.408C72.807 46.408 72.7163 46.3787 72.615 46.32C72.5137 46.2613 72.3883 46.1973 72.239 46.128C72.095 46.0533 71.9217 45.9867 71.719 45.928C71.5163 45.864 71.2763 45.832 70.999 45.832C70.759 45.832 70.543 45.864 70.351 45.928C70.159 45.9867 69.9937 46.0693 69.855 46.176C69.7217 46.2827 69.6177 46.408 69.543 46.552C69.4737 46.6907 69.439 46.8427 69.439 47.008C69.439 47.216 69.4977 47.3893 69.615 47.528C69.7377 47.6667 69.8977 47.7867 70.095 47.888C70.2923 47.9893 70.5163 48.08 70.767 48.16C71.0177 48.2347 71.2737 48.3173 71.535 48.408C71.8017 48.4933 72.0603 48.5893 72.311 48.696C72.5617 48.8027 72.7857 48.936 72.983 49.096C73.1803 49.256 73.3377 49.4533 73.455 49.688C73.5777 49.9173 73.639 50.1947 73.639 50.52C73.639 50.8933 73.5723 51.24 73.439 51.56C73.3057 51.8747 73.1083 52.1493 72.847 52.384C72.5857 52.6133 72.2657 52.7947 71.887 52.928C71.5083 53.0613 71.071 53.128 70.575 53.128C70.0097 53.128 69.4977 53.0373 69.039 52.856C68.5803 52.6693 68.191 52.432 67.871 52.144L68.207 51.6C68.2497 51.5307 68.3003 51.4773 68.359 51.44C68.4177 51.4027 68.495 51.384 68.591 51.384C68.687 51.384 68.7883 51.4213 68.895 51.496C69.0017 51.5707 69.1297 51.6533 69.279 51.744C69.4337 51.8347 69.6177 51.9173 69.831 51.992C70.0497 52.0667 70.3217 52.104 70.647 52.104C70.9243 52.104 71.167 52.0693 71.375 52C71.583 51.9253 71.7563 51.8267 71.895 51.704C72.0337 51.5813 72.135 51.44 72.199 51.28C72.2683 51.12 72.303 50.9493 72.303 50.768C72.303 50.544 72.2417 50.36 72.119 50.216C72.0017 50.0667 71.8443 49.9413 71.647 49.84C71.4497 49.7333 71.223 49.6427 70.967 49.568C70.7163 49.488 70.4577 49.4053 70.191 49.32C69.9297 49.2347 69.671 49.1387 69.415 49.032C69.1643 48.92 68.9403 48.7813 68.743 48.616C68.5457 48.4507 68.3857 48.248 68.263 48.008C68.1457 47.7627 68.087 47.4667 68.087 47.12C68.087 46.8107 68.151 46.5147 68.279 46.232C68.407 45.944 68.5937 45.6933 68.839 45.48C69.0843 45.2613 69.3857 45.088 69.743 44.96C70.1003 44.832 70.5083 44.768 70.967 44.768C71.5003 44.768 71.9777 44.8533 72.399 45.024C72.8257 45.1893 73.1937 45.4187 73.503 45.712L73.183 46.232ZM77.9365 53.128C77.2965 53.128 76.8032 52.9493 76.4565 52.592C76.1152 52.2347 75.9445 51.72 75.9445 51.048V46.088H74.9685C74.8832 46.088 74.8112 46.064 74.7525 46.016C74.6938 45.9627 74.6645 45.8827 74.6645 45.776V45.208L75.9925 45.04L76.3205 42.536C76.3312 42.456 76.3658 42.392 76.4245 42.344C76.4832 42.2907 76.5578 42.264 76.6485 42.264H77.3685V45.056H79.6885V46.088H77.3685V50.952C77.3685 51.2933 77.4512 51.5467 77.6165 51.712C77.7818 51.8773 77.9952 51.96 78.2565 51.96C78.4058 51.96 78.5338 51.9413 78.6405 51.904C78.7525 51.8613 78.8485 51.816 78.9285 51.768C79.0085 51.72 79.0752 51.6773 79.1285 51.64C79.1872 51.5973 79.2378 51.576 79.2805 51.576C79.3552 51.576 79.4218 51.6213 79.4805 51.712L79.8965 52.392C79.6512 52.6213 79.3552 52.8027 79.0085 52.936C78.6618 53.064 78.3045 53.128 77.9365 53.128ZM84.6573 44.768C85.1426 44.768 85.5906 44.8507 86.0013 45.016C86.4119 45.176 86.7666 45.4107 87.0653 45.72C87.3639 46.024 87.5959 46.4027 87.7613 46.856C87.9319 47.304 88.0173 47.816 88.0173 48.392C88.0173 48.616 87.9933 48.7653 87.9453 48.84C87.8973 48.9147 87.8066 48.952 87.6733 48.952H82.2812C82.2919 49.464 82.3613 49.9093 82.4893 50.288C82.6173 50.6667 82.7933 50.984 83.0173 51.24C83.2413 51.4907 83.5079 51.68 83.8173 51.808C84.1266 51.9307 84.4733 51.992 84.8573 51.992C85.2146 51.992 85.5213 51.952 85.7773 51.872C86.0386 51.7867 86.2626 51.696 86.4493 51.6C86.6359 51.504 86.7906 51.416 86.9133 51.336C87.0413 51.2507 87.1506 51.208 87.2413 51.208C87.3586 51.208 87.4493 51.2533 87.5133 51.344L87.9133 51.864C87.7373 52.0773 87.5266 52.264 87.2813 52.424C87.0359 52.5787 86.7719 52.7067 86.4893 52.808C86.2119 52.9093 85.9239 52.984 85.6253 53.032C85.3266 53.0853 85.0306 53.112 84.7373 53.112C84.1773 53.112 83.6599 53.0187 83.1853 52.832C82.7159 52.64 82.3079 52.3627 81.9613 52C81.6199 51.632 81.3533 51.1787 81.1613 50.64C80.9693 50.1013 80.8733 49.4827 80.8733 48.784C80.8733 48.2187 80.9586 47.6907 81.1293 47.2C81.3053 46.7093 81.5559 46.2853 81.8813 45.928C82.2066 45.5653 82.6039 45.2827 83.0733 45.08C83.5426 44.872 84.0706 44.768 84.6573 44.768ZM84.6892 45.816C84.0013 45.816 83.4599 46.016 83.0653 46.416C82.6706 46.8107 82.4253 47.36 82.3293 48.064H86.7373C86.7373 47.7333 86.6919 47.432 86.6013 47.16C86.5106 46.8827 86.3773 46.6453 86.2013 46.448C86.0253 46.2453 85.8093 46.0907 85.5533 45.984C85.3026 45.872 85.0146 45.816 84.6892 45.816ZM89.8399 53V44.896H90.6559C90.8105 44.896 90.9172 44.9253 90.9759 44.984C91.0345 45.0427 91.0745 45.144 91.0959 45.288L91.1919 46.552C91.4692 45.9867 91.8105 45.5467 92.2159 45.232C92.6265 44.912 93.1065 44.752 93.6559 44.752C93.8799 44.752 94.0825 44.7787 94.2639 44.832C94.4452 44.88 94.6132 44.9493 94.7679 45.04L94.5839 46.104C94.5465 46.2373 94.4639 46.304 94.3359 46.304C94.2612 46.304 94.1465 46.28 93.9919 46.232C93.8372 46.1787 93.6212 46.152 93.3439 46.152C92.8479 46.152 92.4319 46.296 92.0959 46.584C91.7652 46.872 91.4879 47.2907 91.2639 47.84V53H89.8399ZM95.925 47.6H99.877V48.808H95.925V47.6ZM107.368 46.336C107.325 46.3947 107.283 46.44 107.24 46.472C107.197 46.504 107.136 46.52 107.056 46.52C106.976 46.52 106.888 46.488 106.792 46.424C106.701 46.3547 106.584 46.28 106.44 46.2C106.296 46.12 106.12 46.048 105.912 45.984C105.709 45.9147 105.459 45.88 105.16 45.88C104.765 45.88 104.416 45.952 104.112 46.096C103.808 46.2347 103.552 46.4373 103.344 46.704C103.141 46.9707 102.987 47.2933 102.88 47.672C102.779 48.0507 102.728 48.4747 102.728 48.944C102.728 49.4347 102.784 49.872 102.896 50.256C103.008 50.6347 103.165 50.9547 103.368 51.216C103.571 51.472 103.816 51.6693 104.104 51.808C104.397 51.9413 104.725 52.008 105.088 52.008C105.435 52.008 105.72 51.968 105.944 51.888C106.168 51.8027 106.355 51.7093 106.504 51.608C106.653 51.5067 106.776 51.416 106.872 51.336C106.968 51.2507 107.064 51.208 107.16 51.208C107.283 51.208 107.373 51.2533 107.432 51.344L107.832 51.864C107.48 52.296 107.04 52.6133 106.512 52.816C105.984 53.0133 105.427 53.112 104.84 53.112C104.333 53.112 103.861 53.0187 103.424 52.832C102.992 52.6453 102.616 52.376 102.296 52.024C101.976 51.6667 101.723 51.2293 101.536 50.712C101.355 50.1947 101.264 49.6053 101.264 48.944C101.264 48.3413 101.347 47.784 101.512 47.272C101.683 46.76 101.928 46.32 102.248 45.952C102.573 45.5787 102.973 45.288 103.448 45.08C103.923 44.872 104.467 44.768 105.08 44.768C105.645 44.768 106.147 44.8613 106.584 45.048C107.021 45.2293 107.408 45.488 107.744 45.824L107.368 46.336ZM110.893 41.216V53H109.469V41.216H110.893ZM119.354 53H118.722C118.584 53 118.472 52.9787 118.386 52.936C118.301 52.8933 118.245 52.8027 118.218 52.664L118.058 51.912C117.845 52.104 117.637 52.2773 117.434 52.432C117.232 52.5813 117.018 52.7093 116.794 52.816C116.57 52.9173 116.33 52.9947 116.074 53.048C115.824 53.1013 115.544 53.128 115.234 53.128C114.92 53.128 114.624 53.0853 114.346 53C114.074 52.9093 113.837 52.776 113.634 52.6C113.432 52.424 113.269 52.2027 113.146 51.936C113.029 51.664 112.97 51.344 112.97 50.976C112.97 50.656 113.058 50.3493 113.234 50.056C113.41 49.7573 113.693 49.4933 114.082 49.264C114.477 49.0347 114.992 48.848 115.626 48.704C116.261 48.5547 117.037 48.4693 117.954 48.448V47.816C117.954 47.1867 117.818 46.712 117.546 46.392C117.28 46.0667 116.882 45.904 116.354 45.904C116.008 45.904 115.714 45.9493 115.474 46.04C115.24 46.1253 115.034 46.224 114.858 46.336C114.688 46.4427 114.538 46.5413 114.41 46.632C114.288 46.7173 114.165 46.76 114.042 46.76C113.946 46.76 113.861 46.736 113.786 46.688C113.717 46.6347 113.661 46.5707 113.618 46.496L113.362 46.04C113.81 45.608 114.293 45.2853 114.81 45.072C115.328 44.8587 115.901 44.752 116.53 44.752C116.984 44.752 117.386 44.8267 117.738 44.976C118.09 45.1253 118.386 45.3333 118.626 45.6C118.866 45.8667 119.048 46.1893 119.17 46.568C119.293 46.9467 119.354 47.3627 119.354 47.816V53ZM115.658 52.128C115.909 52.128 116.138 52.104 116.346 52.056C116.554 52.0027 116.749 51.9307 116.93 51.84C117.117 51.744 117.293 51.6293 117.458 51.496C117.629 51.3627 117.794 51.2107 117.954 51.04V49.352C117.298 49.3733 116.741 49.4267 116.282 49.512C115.824 49.592 115.45 49.6987 115.162 49.832C114.874 49.9653 114.664 50.1227 114.53 50.304C114.402 50.4853 114.338 50.688 114.338 50.912C114.338 51.1253 114.373 51.3093 114.442 51.464C114.512 51.6187 114.605 51.7467 114.722 51.848C114.84 51.944 114.978 52.016 115.138 52.064C115.298 52.1067 115.472 52.128 115.658 52.128ZM126.152 46.232C126.088 46.3493 125.989 46.408 125.856 46.408C125.776 46.408 125.685 46.3787 125.584 46.32C125.482 46.2613 125.357 46.1973 125.208 46.128C125.064 46.0533 124.89 45.9867 124.688 45.928C124.485 45.864 124.245 45.832 123.968 45.832C123.728 45.832 123.512 45.864 123.32 45.928C123.128 45.9867 122.962 46.0693 122.824 46.176C122.69 46.2827 122.586 46.408 122.512 46.552C122.442 46.6907 122.408 46.8427 122.408 47.008C122.408 47.216 122.466 47.3893 122.584 47.528C122.706 47.6667 122.866 47.7867 123.064 47.888C123.261 47.9893 123.485 48.08 123.736 48.16C123.986 48.2347 124.242 48.3173 124.504 48.408C124.77 48.4933 125.029 48.5893 125.28 48.696C125.53 48.8027 125.754 48.936 125.952 49.096C126.149 49.256 126.306 49.4533 126.424 49.688C126.546 49.9173 126.608 50.1947 126.608 50.52C126.608 50.8933 126.541 51.24 126.408 51.56C126.274 51.8747 126.077 52.1493 125.816 52.384C125.554 52.6133 125.234 52.7947 124.856 52.928C124.477 53.0613 124.04 53.128 123.544 53.128C122.978 53.128 122.466 53.0373 122.008 52.856C121.549 52.6693 121.16 52.432 120.84 52.144L121.176 51.6C121.218 51.5307 121.269 51.4773 121.328 51.44C121.386 51.4027 121.464 51.384 121.56 51.384C121.656 51.384 121.757 51.4213 121.864 51.496C121.97 51.5707 122.098 51.6533 122.248 51.744C122.402 51.8347 122.586 51.9173 122.8 51.992C123.018 52.0667 123.29 52.104 123.616 52.104C123.893 52.104 124.136 52.0693 124.344 52C124.552 51.9253 124.725 51.8267 124.864 51.704C125.002 51.5813 125.104 51.44 125.168 51.28C125.237 51.12 125.272 50.9493 125.272 50.768C125.272 50.544 125.21 50.36 125.088 50.216C124.97 50.0667 124.813 49.9413 124.616 49.84C124.418 49.7333 124.192 49.6427 123.936 49.568C123.685 49.488 123.426 49.4053 123.16 49.32C122.898 49.2347 122.64 49.1387 122.384 49.032C122.133 48.92 121.909 48.7813 121.712 48.616C121.514 48.4507 121.354 48.248 121.232 48.008C121.114 47.7627 121.056 47.4667 121.056 47.12C121.056 46.8107 121.12 46.5147 121.248 46.232C121.376 45.944 121.562 45.6933 121.808 45.48C122.053 45.2613 122.354 45.088 122.712 44.96C123.069 44.832 123.477 44.768 123.936 44.768C124.469 44.768 124.946 44.8533 125.368 45.024C125.794 45.1893 126.162 45.4187 126.472 45.712L126.152 46.232ZM133.089 46.232C133.025 46.3493 132.927 46.408 132.793 46.408C132.713 46.408 132.623 46.3787 132.521 46.32C132.42 46.2613 132.295 46.1973 132.145 46.128C132.001 46.0533 131.828 45.9867 131.625 45.928C131.423 45.864 131.183 45.832 130.905 45.832C130.665 45.832 130.449 45.864 130.257 45.928C130.065 45.9867 129.9 46.0693 129.761 46.176C129.628 46.2827 129.524 46.408 129.449 46.552C129.38 46.6907 129.345 46.8427 129.345 47.008C129.345 47.216 129.404 47.3893 129.521 47.528C129.644 47.6667 129.804 47.7867 130.001 47.888C130.199 47.9893 130.423 48.08 130.673 48.16C130.924 48.2347 131.18 48.3173 131.441 48.408C131.708 48.4933 131.967 48.5893 132.217 48.696C132.468 48.8027 132.692 48.936 132.889 49.096C133.087 49.256 133.244 49.4533 133.361 49.688C133.484 49.9173 133.545 50.1947 133.545 50.52C133.545 50.8933 133.479 51.24 133.345 51.56C133.212 51.8747 133.015 52.1493 132.753 52.384C132.492 52.6133 132.172 52.7947 131.793 52.928C131.415 53.0613 130.977 53.128 130.481 53.128C129.916 53.128 129.404 53.0373 128.945 52.856C128.487 52.6693 128.097 52.432 127.777 52.144L128.113 51.6C128.156 51.5307 128.207 51.4773 128.265 51.44C128.324 51.4027 128.401 51.384 128.497 51.384C128.593 51.384 128.695 51.4213 128.801 51.496C128.908 51.5707 129.036 51.6533 129.185 51.744C129.34 51.8347 129.524 51.9173 129.737 51.992C129.956 52.0667 130.228 52.104 130.553 52.104C130.831 52.104 131.073 52.0693 131.281 52C131.489 51.9253 131.663 51.8267 131.801 51.704C131.94 51.5813 132.041 51.44 132.105 51.28C132.175 51.12 132.209 50.9493 132.209 50.768C132.209 50.544 132.148 50.36 132.025 50.216C131.908 50.0667 131.751 49.9413 131.553 49.84C131.356 49.7333 131.129 49.6427 130.873 49.568C130.623 49.488 130.364 49.4053 130.097 49.32C129.836 49.2347 129.577 49.1387 129.321 49.032C129.071 48.92 128.847 48.7813 128.649 48.616C128.452 48.4507 128.292 48.248 128.169 48.008C128.052 47.7627 127.993 47.4667 127.993 47.12C127.993 46.8107 128.057 46.5147 128.185 46.232C128.313 45.944 128.5 45.6933 128.745 45.48C128.991 45.2613 129.292 45.088 129.649 44.96C130.007 44.832 130.415 44.768 130.873 44.768C131.407 44.768 131.884 44.8533 132.305 45.024C132.732 45.1893 133.1 45.4187 133.409 45.712L133.089 46.232Z" fill="#787A80"/>
</g>
<defs>
<clipPath id="clip0_47768_1880">
<rect width="757" height="60" fill="white"/>
</clipPath>
</defs>
</svg>
